<svg xmlns="http://www.w3.org/2000/svg" xmlns:xlink="http://www.w3.org/1999/xlink" viewBox="0 0 167.27 171.92"><defs><style>.cls-1{isolation:isolate;}.cls-2{fill:#1976ff;opacity:0.54;}.cls-3{fill:#140304;}.cls-4{fill:#403a39;}.cls-10,.cls-5{fill:#fff;}.cls-6{fill:#2a1e1f;}.cls-7{fill:#4d4d4d;}.cls-8{fill:#4a5967;}.cls-9{fill:#999;}.cls-10,.cls-14{opacity:0.25;mix-blend-mode:soft-light;}.cls-11{opacity:0.37;}.cls-12{fill:url(#未命名漸層_24);}.cls-13{fill:url(#未命名漸層_5);}.cls-14{fill:#bcdff2;}.cls-15{fill:#150301;}.cls-16{fill:#120409;}.cls-17{fill:#c8c9ca;}</style><radialGradient id="未命名漸層_24" cx="1817.06" cy="486.14" r="35.43" gradientTransform="matrix(-0.89, -0.46, -0.46, 0.89, 1908.23, 448.63)" gradientUnits="userSpaceOnUse"><stop offset="0" stop-color="#fff"/><stop offset="0.41" stop-color="#fff"/><stop offset="0.73" stop-color="#fff"/><stop offset="0.78" stop-color="#fff"/><stop offset="1"/></radialGradient><radialGradient id="未命名漸層_5" cx="1752.44" cy="495.08" r="26.05" gradientTransform="matrix(-0.89, -0.46, -0.46, 0.89, 1908.23, 448.63)" gradientUnits="userSpaceOnUse"><stop offset="0" stop-color="#fff"/><stop offset="0.41" stop-color="#fff"/><stop offset="0.78" stop-color="#fff"/><stop offset="1"/></radialGradient></defs><g class="cls-1"><g id="圖層_2" data-name="圖層 2"><g id="圖層_1-2" data-name="圖層 1"><circle class="cls-2" cx="114.87" cy="119.52" r="52.4"/><path class="cls-3" d="M59.76,34.59S32.55,22.42,51.37,3.38c0,0,5.94-6.18,13.52-1.82,0,0,19.67,5.34,7,31.55Z"/><path class="cls-4" d="M53.32,12.78s0,5.28,3.74,12.22l13.42-3.63s.18-8.34-3.39-10.54S56.63,5.24,53.32,12.78Z"/><path class="cls-3" d="M116.61,52.89s4-29.53,27.55-16.9c0,0,7.61,3.94,5.58,12.45,0,0,.46,20.38-28.26,15.69Z"/><path class="cls-4" d="M135.7,40.53s-5.07,1.49-10.66,7l7.29,11.85s8-2.2,9.15-6.25S143.87,41.56,135.7,40.53Z"/><path class="cls-3" d="M110.42,149.72c34.16-13.65,35.83-47.89,24.21-96.15C131.76,41.65,85,1.38,52.05,20.6,33.75,31.27,17.13,44.85,12.36,53.09,5.69,64.63-6.37,85.83,4.13,106.16,5.32,108.46,41,175.56,110.42,149.72Z"/><path class="cls-5" d="M52.24,66.46c-2.6,3.78-2.52,8.34.18,10.2s7,.32,9.6-3.45,2.52-8.33-.18-10.2S54.84,62.69,52.24,66.46Z"/><path class="cls-5" d="M106.57,92.72c-.29,4.57,2.14,8.44,5.42,8.64s6.16-3.34,6.44-7.91S116.29,85,113,84.81,106.85,88.15,106.57,92.72Z"/><path class="cls-5" d="M85.62,83.46s-24.1-10.28-31.33,8.19c0,0-2.32,17.35,18.41,23.91,0,0,22.91,5.4,28.14-11.42C100.84,104.14,100.89,89.65,85.62,83.46Z"/><path class="cls-3" d="M87.75,92.07c.84,1.05,1.32,3.05.62,3.92s-6.06,3.23-8.21,2.42S73,92.1,72.35,90.93s1.24-4.84,2.33-4.72,4.72,3.4,8.16,4.3C85.34,91.16,87.43,91.67,87.75,92.07Z"/><path class="cls-6" d="M87.33,92.37c.74.89,1.17,2.54.57,3.21s-5.57,2.63-7.44,1.87-6-5.26-6.53-6.24,1.19-4.12,2-3.71a38.84,38.84,0,0,0,7,3.42C85.12,91.57,87.05,92,87.33,92.37Z"/><path class="cls-4" d="M86.92,92.67c.63.74,1,2,.51,2.5s-5.07,2-6.67,1.31-4.78-4.2-5.24-5,1.08-3.29,1.66-2.71c1.17,1.18,3.33,1.65,5.87,2.54A28.2,28.2,0,0,1,86.92,92.67Z"/><path class="cls-3" d="M59.94,71a4.18,4.18,0,0,0-1.49-2.74,3.33,3.33,0,0,0-3.75-.12,1.54,1.54,0,0,0-.72.77A1.44,1.44,0,0,0,54,70a1.37,1.37,0,0,0,.76.72,1.42,1.42,0,0,0,1.09,0,3.14,3.14,0,0,1,.67-.31l-.34.11a2.05,2.05,0,0,1,.55-.1l-.37,0a1.71,1.71,0,0,1,.45,0l-.37-.08a1.49,1.49,0,0,1,.4.15l-.32-.17a1.41,1.41,0,0,1,.37.27l-.26-.25a2.93,2.93,0,0,1,.39.48l-.19-.3a2.85,2.85,0,0,1,.34.73l-.11-.35a5.05,5.05,0,0,1,.12.56,1.39,1.39,0,0,0,.55.89A1.4,1.4,0,0,0,59.94,71Z"/><path class="cls-3" d="M110.07,90.38a3.49,3.49,0,1,0,4.84-.89A3.5,3.5,0,0,0,110.07,90.38Z"/><path class="cls-5" d="M113.6,91.16a1.19,1.19,0,1,0,1.66-.31A1.19,1.19,0,0,0,113.6,91.16Z"/><path class="cls-7" d="M41.15,47c-3.65,8.85-.35,23.67,9.2,28.57a26.08,26.08,0,0,0,13.77,2.6c5.93-.74,11.12-8.48,13.88-13.85A16.93,16.93,0,0,0,79.85,57l6.42,1.66L85.2,66.92,73.74,84.17,70.84,86c-5.56,3.1-12.43,2.19-19.39,0-12-3.8-16.82-13.54-17.55-19.86l-.34-7.45,2-12.89Z"/><polygon class="cls-7" points="85.26 65.85 100.24 72.76 106.74 73.44 95.53 80.3 92.5 93.34 73.8 83.08 85.26 65.85"/><path class="cls-8" d="M105.12,75.8l2.44-1.5a18.68,18.68,0,0,0-1.63,1.58Z"/><path class="cls-8" d="M112.87,71.05h0l0,0Z"/><path class="cls-7" d="M100.87,86.56a19.71,19.71,0,0,0,22,22.24c5-.65,9.33-2.19,13.93-8.94l1.77,8-5.38,5.83c-5.9,4.89-13,6.43-21,4.26-15.86-4.29-19.56-15.19-20.1-21.81l.65.33Z"/><path class="cls-7" d="M105.12,75.8l.81.08a19.56,19.56,0,0,0-5.06,10.68l-8,12.88-.78-3.28,1.78-13.5Z"/><path class="cls-9" d="M35.52,45.76A26.57,26.57,0,1,0,71.28,34.24,26.57,26.57,0,0,0,35.52,45.76Zm6.12,3.13a19.69,19.69,0,1,1,8.54,26.52A19.64,19.64,0,0,1,41.64,48.89Z"/><path class="cls-9" d="M96.74,77.14A26.57,26.57,0,1,0,132.5,65.62,26.56,26.56,0,0,0,96.74,77.14Zm6.11,3.13a19.71,19.71,0,1,1,8.55,26.52A19.69,19.69,0,0,1,102.85,80.27Z"/><path class="cls-9" d="M78.84,58.7a53.54,53.54,0,0,0,29.39,15.06,19.65,19.65,0,0,0-7.53,14.68A53.39,53.39,0,0,0,71.32,73.38,19.72,19.72,0,0,0,78.84,58.7Z"/><path class="cls-10" d="M68.15,40.35A19.7,19.7,0,0,1,62.5,77.29L54.17,38.82A19.68,19.68,0,0,1,68.15,40.35Z"/><g class="cls-11"><path class="cls-12" d="M54.17,38.82A19.7,19.7,0,1,1,41.64,48.89,19.68,19.68,0,0,1,54.17,38.82Z"/><path class="cls-13" d="M116.28,70a19.7,19.7,0,1,1-13.43,10.28A19.66,19.66,0,0,1,116.28,70Z"/></g><path class="cls-14" d="M67.84,40.19a19.7,19.7,0,0,1-6.47,37.07L54.75,38.45A19.66,19.66,0,0,1,67.84,40.19Z"/><path class="cls-10" d="M129.37,71.73a19.7,19.7,0,0,1-6.47,37.07L116.28,70A19.66,19.66,0,0,1,129.37,71.73Z"/><ellipse class="cls-15" cx="72.7" cy="105.22" rx="4.35" ry="3.24" transform="translate(-54.31 120.19) rotate(-62.08)"/><path class="cls-16" d="M66.7,155.64a10,10,0,0,1,.8-2.07c1.54-2.94,4.54-4.68,7-6.78,3.07-2.66,21.72-19.34,22.82-21.24,1.3-2.24,2.94-5,3.4-7.6.31-1.76-.19-5.81,2.37-6.21,2.92-.45,2.55,2.61,2.78,4.42a23.06,23.06,0,0,0,3.78-4,2.51,2.51,0,0,1,1-.77,1.85,1.85,0,0,1,1.74.45,7.9,7.9,0,0,1,1.14,1.56,2.58,2.58,0,0,1,2.65-.61c.92.44.56,1.59,1.24,2.16s2.06.2,2.64.72c2,1.75-1.1,6.59-2.1,8.22-3.12,5-8.89,8.06-12.59,12.7-4.45,5.56-8.45,11.44-12.79,17.07-3.22,4.16-7.32,8.93-11.91,11.65-2.46,1.47-5,2.34-7.68,1.35-2.54-.92-4.65-2.1-5.82-4.7A9.44,9.44,0,0,1,66.7,155.64Z"/><path class="cls-17" d="M66.87,155.7a10.38,10.38,0,0,1,2.57-4.46,34.18,34.18,0,0,1,3.68-3.11c1.16-.92,2.27-1.9,3.37-2.88q4.41-3.9,8.75-7.86c3.09-2.81,6.17-5.62,9.16-8.52.89-.86,1.8-1.73,2.61-2.66a7.9,7.9,0,0,0,.9-1.37,32.79,32.79,0,0,0,2.3-4.59,12.18,12.18,0,0,0,.79-3.72,9.5,9.5,0,0,1,.54-3.31,2.16,2.16,0,0,1,2.91-1.16c.94.48,1,1.78,1.1,2.7,0,.48.06,1,.12,1.43a.18.18,0,0,0,.29.11,17.5,17.5,0,0,0,3.23-3.37c.59-.72,1.26-1.73,2.34-1.38.87.28,1.33,1.18,1.78,1.9a.18.18,0,0,0,.28.06c.67-.53,1.74-1.06,2.56-.53.55.35.5,1.08.75,1.61a1.55,1.55,0,0,0,1.13.82c.65.15,1.5,0,2,.49.74.79.45,2.13.16,3a16.53,16.53,0,0,1-1.49,3.26,25.53,25.53,0,0,1-4.72,6c-2.22,2.09-4.67,3.92-6.83,6.06a67,67,0,0,0-6.47,8.06c-2.19,2.94-4.32,5.92-6.52,8.86-3.89,5.18-8.08,10.71-13.78,14a10.2,10.2,0,0,1-5.18,1.65,10.15,10.15,0,0,1-4.84-1.62c-3.3-2-4.41-5.93-3.48-9.55.06-.22-.28-.36-.34-.13a9,9,0,0,0,2.18,8.9,10.79,10.79,0,0,0,3.53,2.09,7.83,7.83,0,0,0,4.58.51c3.21-.66,6.1-2.93,8.47-5.08a60.93,60.93,0,0,0,6.94-7.68c2.45-3.14,4.78-6.37,7.13-9.59,1.2-1.63,2.4-3.26,3.62-4.86s2.26-3,3.54-4.42c2.25-2.43,4.92-4.4,7.34-6.63a26.35,26.35,0,0,0,5.16-6.45,16.65,16.65,0,0,0,1.52-3.36,4,4,0,0,0,0-2.91,1.56,1.56,0,0,0-1-.85c-.71-.18-1.7.05-2.23-.58-.36-.44-.31-1.09-.61-1.57a1.64,1.64,0,0,0-1.51-.67,3.32,3.32,0,0,0-1.89.81l.28.07a4.84,4.84,0,0,0-1.64-1.94,1.8,1.8,0,0,0-2.12.24,19.84,19.84,0,0,0-1.83,2.14,12.22,12.22,0,0,1-2.32,2.28l.29.11c-.19-1.6.06-4.4-2.16-4.6-2.56-.24-3,2.35-3.18,4.33a14.23,14.23,0,0,1-.67,3.88,30.75,30.75,0,0,1-2.49,5.05,12.21,12.21,0,0,1-2.06,2.53c-2.83,2.85-5.81,5.55-8.76,8.25q-4.77,4.37-9.6,8.65c-.9.81-1.8,1.61-2.72,2.4-2.39,2.07-5.29,3.77-6.89,6.6a10.46,10.46,0,0,0-1,2.35C66.47,155.79,66.81,155.93,66.87,155.7Z"/><path class="cls-16" d="M10,90.14A86,86,0,0,1,17.46,74.7c1.37-2.15,3.27-4.07,4.43-6.33s2.05-4.43,3.25-6.59a24.4,24.4,0,0,1,1.92-3.08c.31-.4.84-.81,1.25-.53a1,1,0,0,1,.33.48A5.38,5.38,0,0,1,28.33,63c1-1.79,7.33-5.17,9.25-3.7s.47,3.3-.58,4.54a6.39,6.39,0,0,1,2.48-.33A2.13,2.13,0,0,1,41.33,65c.19.83-.31,1.7-.16,2.54A2.23,2.23,0,0,1,43.25,71c-.26.39-.66.75-.67,1.22a2.44,2.44,0,0,0,.34,1,3.27,3.27,0,0,1-.68,3.24C38,81.59,29.68,82.87,27,89.49c-.65,1.63-8.58,31.51-10,35C15.21,129.2,12,138.64,5.92,134.72,2.06,132.23,2,122,2.22,118.11,2.87,107.6,6.2,100,10,90.14Z"/><path class="cls-17" d="M10.14,90.21A87.23,87.23,0,0,1,17.2,75.46c1.35-2.19,3.14-4.07,4.45-6.28s2.32-4.92,3.64-7.29c.34-.63.69-1.25,1.07-1.85s1.29-2.39,2.06-1.45a2.56,2.56,0,0,1,.29,1A5.11,5.11,0,0,1,28.16,63c-.09.18.22.35.32.17A6.62,6.62,0,0,1,30.93,61a14.25,14.25,0,0,1,3.65-1.63c.94-.26,2.22-.54,3,.17,1.44,1.25.18,3.05-.75,4.17-.1.12,0,.33.17.28,1.17-.31,2.6-.67,3.61.21s.21,2.21.35,3.34a.19.19,0,0,0,.21.15A2.1,2.1,0,0,1,43.28,69a2.19,2.19,0,0,1,0,1.43,7.4,7.4,0,0,1-.73,1.17,1.54,1.54,0,0,0,.1,1.51,2.92,2.92,0,0,1-.26,2.76,10.82,10.82,0,0,1-2.73,2.71,32.25,32.25,0,0,1-3,2c-3.74,2.26-8.24,4.51-9.84,8.89-.71,2-1.17,4-1.73,6q-1.54,5.58-3.07,11.16c-1,3.77-2.08,7.54-3.16,11.31-.63,2.21-1.2,4.48-2,6.62-.74,1.89-1.46,3.79-2.38,5.6a11.07,11.07,0,0,1-3.7,4.63,4.4,4.4,0,0,1-5.17-.67C4,132.84,3.39,130.53,3,128.58a44.13,44.13,0,0,1-.25-14.14c.86-6.72,3.09-13.09,5.51-19.38q.95-2.41,1.88-4.85a.18.18,0,0,0-.34-.13c-2.5,6.51-5.21,13-6.65,19.84a50.94,50.94,0,0,0-.93,15.91c.39,3.71,1.31,9.18,5.79,9.94,4.07.69,6.42-4.45,7.72-7.44a66.56,66.56,0,0,0,2.71-7.59c1.07-3.63,2.08-7.27,3.09-10.91,1.11-4,2.2-8,3.31-12,.71-2.57,1.38-5.15,2.17-7.69,1.29-4.2,5.35-6.51,8.89-8.61a26.4,26.4,0,0,0,6-4.39,4,4,0,0,0,1.32-3.6c-.09-.35-.32-.66-.4-1-.13-.61.29-1,.58-1.41a2.51,2.51,0,0,0,.34-1.85,2.46,2.46,0,0,0-2.6-1.87l.22.15c-.1-.8.29-1.55.19-2.35a1.94,1.94,0,0,0-.72-1.26c-1.11-.9-2.59-.57-3.85-.23l.18.28a4.86,4.86,0,0,0,1.48-3.14,2.21,2.21,0,0,0-1.84-2,6.18,6.18,0,0,0-2.94.44,15.39,15.39,0,0,0-3.32,1.6,6.46,6.46,0,0,0-2.34,2.06l.31.17A5.61,5.61,0,0,0,29,59.38c-.16-.81-.57-1.91-1.57-1.3a4.33,4.33,0,0,0-1.17,1.38c-.43.66-.81,1.34-1.19,2-.74,1.32-1.39,2.67-2,4a31.83,31.83,0,0,1-2.15,4.14c-.79,1.2-1.71,2.3-2.56,3.45a49.59,49.59,0,0,0-4.49,7.6c-1.52,3-2.85,6.2-4.07,9.38A.18.18,0,0,0,10.14,90.21Z"/></g></g></g></svg>