<svg xmlns="http://www.w3.org/2000/svg" viewBox="0 0 167.56 202.54"><defs><style>.cls-1{fill:#7f97fd;}.cls-2{fill:#6ab6b7;}.cls-3{fill:#389d9f;}.cls-4{fill:#056465;}.cls-5{fill:#eaeff5;}.cls-6{fill:#6d903e;}.cls-10,.cls-6,.cls-7,.cls-8,.cls-9{fill-rule:evenodd;}.cls-7{fill:#1d6d3e;}.cls-8{fill:#779645;}.cls-9{fill:#f58a04;}.cls-10{fill:#ffb24f;}</style></defs><g id="圖層_2" data-name="圖層 2"><g id="圖層_1-2" data-name="圖層 1"><path class="cls-1" d="M48.35,168.5,150,170.32l.57,0c.63,0,1.25-.07,1.87-.15h0c.38-.06.75-.15,1.12-.23s.92-.22,1.37-.35l.69-.23c.48-.18,1-.38,1.42-.6l.48-.22a17.18,17.18,0,0,0,1.74-1.06l.34-.28a15,15,0,0,0,1.23-1c.33-.31.65-.62,1-1l.09-.11A14,14,0,0,0,163,163.8l-19.92,28.45c-.18.25-.36.5-.55.74s-.38.48-.58.71l-.19.21a.86.86,0,0,1-.13.14l-.29.33-.65.65-.25.2-.3.31c-.39.34-.81.64-1.22,1l-.35.29-.08.05a18.61,18.61,0,0,1-2,1.23l-.16.08-.12.07c-.52.26-1,.49-1.6.71l-.39.15-.59.22c-.44.15-.9.28-1.35.4h0c-.46.12-.93.22-1.4.31l-.8.12H130l-.69.08c-.27,0-.54,0-.82.06s-.55,0-.82,0L.88,197.22Z"/><polygon class="cls-2" points="47.9 136.98 151.05 138.18 128.05 160.18 0 158.1 47.9 136.98"/><path class="cls-3" d="M147.8,188a19.56,19.56,0,0,0,.69-3,20,20,0,0,0,.25-3.12,19.66,19.66,0,0,0-.14-2.32c0-.25-.07-.49-.1-.74-.08-.51-.17-1-.28-1.53-.06-.27-.13-.55-.21-.82-.12-.47-.26-.93-.41-1.38-.09-.27-.19-.54-.29-.8-.18-.46-.38-.91-.58-1.35-.11-.24-.22-.48-.34-.71q-.4-.78-.87-1.53l-.24-.41c-.41-.62-.85-1.22-1.31-1.8l-.4-.45c-.36-.42-.72-.82-1.1-1.21l-.59-.56q-.52-.5-1.08-1c-.37-.31-.74-.62-1.14-.9l0,0c-.54-.38-1.1-.75-1.67-1.09l-.06,0c-.55-.33-1.13-.63-1.71-.91l-.14-.07c-.57-.26-1.15-.51-1.74-.72l-.15-.06c-.62-.23-1.25-.42-1.89-.59l-.09,0c-.65-.17-1.31-.31-2-.42h-.06q-1-.16-2.1-.24l23-22,.55,0,.53.06.54.08h.11l.42.07.66.13.5.12.07,0,.08,0,.64.18.63.21.17.06.12,0,.36.14.64.26.39.18.06,0,0,0,.13.06.61.31c.22.11.43.23.64.36l0,0,0,0c.23.13.46.28.69.42l.61.43,0,0h0l.64.48.25.22c.3.25.59.51.87.77l.46.44.2.19c.24.25.46.52.68.78l.27.29.05.07c.37.46.72.94,1,1.43.07.11.13.22.19.33a13.3,13.3,0,0,1,.7,1.22l.09.16c.07.13.11.27.17.4s.23.46.33.7.09.25.14.38.15.43.23.64c.12.37.23.73.33,1.1,0,.14.08.27.12.4s0,.18,0,.26c.09.41.16.82.22,1.23,0,.19.06.39.08.58a14.4,14.4,0,0,1,.1,1.86,16,16,0,0,1-.2,2.51,16.11,16.11,0,0,1-1.46,4.62,16.39,16.39,0,0,1-1.2,2.07l-19.5,28.67a20.37,20.37,0,0,0,2.6-5.36Z"/><path class="cls-4" d="M144.88,174.37a18.74,18.74,0,0,1,1.53,7.43,18.23,18.23,0,0,1-5.52,13.06,18.92,18.92,0,0,1-5.95,3.95,19.61,19.61,0,0,1-7.3,1.49l-125.21-3-1.54,0,0,2.17,1.5,0,124.51,3.11a22,22,0,0,0,8.44-1.45,21.05,21.05,0,0,0,6.92-4.38,20.5,20.5,0,0,0,6.44-14.86,20.88,20.88,0,0,0-1.61-8.08,21.68,21.68,0,0,0-4.41-6.73,22.6,22.6,0,0,0-6.59-4.75,22.2,22.2,0,0,0-8.08-2.11l-1.16-.09-124.46-2L0,158.1l.05,2.21,2.38,0,124.46,2a20,20,0,0,1,13.81,5.84A19.62,19.62,0,0,1,144.88,174.37Z"/><path class="cls-5" d="M2.43,160.35c4.29,12.94,4.79,25.32,0,36.91l125.21,3a19.61,19.61,0,0,0,7.3-1.49,18.92,18.92,0,0,0,5.95-3.95,18.23,18.23,0,0,0,5.52-13.06,18.74,18.74,0,0,0-1.53-7.43,19.62,19.62,0,0,0-4.18-6.14,20,20,0,0,0-13.81-5.84Z"/><path class="cls-6" d="M95.41,75c-.12,2.49-.19,5-.37,7.46a5,5,0,0,1-.66,2.26,2.33,2.33,0,0,1-4.21-.37,8.21,8.21,0,0,1-.33-3.14c.49-12.31-1.59-24.09-7.1-35.15-2.16-4.35-5.53-7.75-8.71-11.3-1-1.16-2.18-1.2-3.54-.4-1.89,1.11-3.86,2.1-5.84,3.06A22.06,22.06,0,0,1,50.24,39a73.19,73.19,0,0,1-12.7-4.26A27,27,0,0,1,22.86,20.17c-1.12-2.51-2.29-5-3.49-7.47A11.35,11.35,0,0,0,18,10.46C16.14,8,16.81,6.3,19.67,5.36c5.8-1.91,11.87-2.31,17.78-3.56A97.16,97.16,0,0,1,53.12,0c4.32-.19,8.32,1,12.29,2.44a4.37,4.37,0,0,1,1.15.65c6,4.51,10.25,10.17,10.92,18,.2,2.48.34,5,.33,7.46A4.84,4.84,0,0,0,79.05,32c1.38,1.62,2.6,3.37,4,5a40.81,40.81,0,0,1,8.72,16.86c1.87,7,3.76,13.92,3.63,21.24Z"/><path class="cls-7" d="M71.14,30.49c-3.07-1.77-5.32-4.7-8.43-6.85a54.12,54.12,0,0,1-5.39,4.21A80.38,80.38,0,0,1,49.16,32a4,4,0,0,1-3.55-.15c6-1.65,11-5,15.57-9.33a26.93,26.93,0,0,0-12.14-6,21.36,21.36,0,0,0-3.63-.62c-6.11-.34-11.74-2.77-17.64-4.07A14.09,14.09,0,0,1,23.2,9.44a115,115,0,0,0,23.86,5.38c-1.69-3.75-5-5.33-8-8.1A9,9,0,0,1,43.72,9a60.39,60.39,0,0,1,4.48,4.83c.45.5.84,1.22,1.41,1.44,2,.77,4.21,1.23,6.23,2.08s3.86,2,6.12,3.21c-.07-5.19-2.53-9.1-4.91-13.21a15.47,15.47,0,0,1,1.26,1A19.92,19.92,0,0,1,64,20.14a5.48,5.48,0,0,0,2.31,4,38.24,38.24,0,0,1,3.83,3.25,16.45,16.45,0,0,1,1.74,2.43l-.7.71Z"/><path class="cls-8" d="M82,95.25c.11,2.33.18,4.67.35,7a4.71,4.71,0,0,0,.62,2.12,2.17,2.17,0,0,0,3.94-.35,7.74,7.74,0,0,0,.32-2.93,66.77,66.77,0,0,1,6.65-33c2-4.08,5.19-7.27,8.17-10.6a2.34,2.34,0,0,1,3.31-.37c1.78,1,3.63,2,5.48,2.87a20.75,20.75,0,0,0,13.52,1.47,70,70,0,0,0,11.91-4A25.27,25.27,0,0,0,150,43.82c1.06-2.35,2.15-4.68,3.27-7a12.54,12.54,0,0,1,1.28-2.1c1.76-2.28,1.13-3.9-1.55-4.78-5.44-1.78-11.13-2.16-16.68-3.33a89.56,89.56,0,0,0-14.68-1.67c-4-.18-7.81.92-11.53,2.29a4.58,4.58,0,0,0-1.08.6c-5.66,4.23-9.61,9.54-10.23,16.9-.2,2.33-.32,4.67-.32,7a4.55,4.55,0,0,1-1.16,3.17C96,56.4,94.88,58,93.56,59.53a38.19,38.19,0,0,0-8.17,15.8c-1.76,6.53-3.53,13-3.41,19.92Z"/><path class="cls-7" d="M104.74,53.5c2.88-1.66,5-4.41,7.9-6.42A51.81,51.81,0,0,0,117.7,51a75.5,75.5,0,0,0,7.65,3.92,3.75,3.75,0,0,0,3.32-.14,33.83,33.83,0,0,1-14.59-8.75,25.23,25.23,0,0,1,11.38-5.63,18.89,18.89,0,0,1,3.4-.58c5.73-.32,11-2.6,16.54-3.82a13,13,0,0,0,4.29-2.26,107.3,107.3,0,0,1-22.37,5c1.58-3.51,4.71-5,7.48-7.59a8.37,8.37,0,0,0-4.35,2.16,56.29,56.29,0,0,0-4.2,4.52c-.43.47-.79,1.15-1.32,1.35-1.92.73-4,1.16-5.84,1.95s-3.63,1.89-5.75,3c.08-4.88,2.37-8.54,4.61-12.39a12.25,12.25,0,0,0-1.18,1,18.69,18.69,0,0,0-5.3,11,5.16,5.16,0,0,1-2.17,3.71,37.2,37.2,0,0,0-3.59,3,17.09,17.09,0,0,0-1.63,2.28l.66.67Z"/><path class="cls-9" d="M80.65,82.06c8,3,15.64,2.62,23.44-.14-.11,2.1-.24,3.77-.27,5.43,0,2.49.32,3,2.67,3.92a21.14,21.14,0,0,1,8.53,6,18.1,18.1,0,0,1,4,8.59,102.26,102.26,0,0,1,1.91,13.16,106.54,106.54,0,0,1-.78,22.36c-.31,2.18-1.06,4.3-1.53,6.47a3.18,3.18,0,0,1-2.66,2.59c-1.89.41-3.79.75-5.7,1a175.49,175.49,0,0,1-28.62,1.28c-2.09-.07-4.18-.38-6.26-.61a5.52,5.52,0,0,1-4.86-3.95,110.2,110.2,0,0,1-3.81-12.45,66.1,66.1,0,0,1,.93-31.16A17.43,17.43,0,0,1,78.3,92.22c3.39-1.39,3.38-3.17,3-5.84-.17-1.28-.4-2.56-.67-4.32Z"/><path class="cls-10" d="M114.61,105c.06,4-1.42,5.31-4.16,4.51-1.75-.51-3.38-1.45-5.11-2.1a33.89,33.89,0,0,0-6.18-2,102.85,102.85,0,0,0-17.79-1.67,23.56,23.56,0,0,1-6.45-1.13,3,3,0,0,1-1.26-5.23c1.86-1.74,3.88-2.94,6.82-2.57A69.42,69.42,0,0,0,92,95c4.46-.2,8.92-.63,13.36-1.11a6.34,6.34,0,0,1,6.85,3.89,51.06,51.06,0,0,1,2.38,7.27Z"/><path class="cls-10" d="M84.05,86.59c4.11,1.2,8.22.75,12.32-.13.94-.21,1.87-.49,2.82-.61,1.76-.21,2.78.46,3,1.83a2.9,2.9,0,0,1-2.25,3.14,17.75,17.75,0,0,1-3.64.34c-3.14,0-6.29-.11-9.43-.32-3-.2-3.46-1.06-2.78-4.25Z"/></g></g></svg>