<svg xmlns="http://www.w3.org/2000/svg" viewBox="0 0 299.65 350.9"><defs><style>.cls-1{fill:#89d8c1;}.cls-2{fill:#c5c2d1;}.cls-2,.cls-3,.cls-4,.cls-5{fill-rule:evenodd;}.cls-3{fill:#fff;}.cls-4{fill:#ffcc29;}.cls-5{fill:#59536c;}</style></defs><g id="圖層_2" data-name="圖層 2"><g id="圖層_1-2" data-name="圖層 1"><circle class="cls-1" cx="141.16" cy="141.16" r="141.16"/><path class="cls-2" d="M223.12,293c1.11,4.1,4.61,2.87,2.26,3.9-20.45,12.52-48.82,27.51-74.84,39.83-6,4.34-10.46,4.1-16.48,2.28a691.84,691.84,0,0,1-72.35-26.38C54.89,309.71,48,307.08,41,304.56c-2.57-.93-2.85-2.2-2-4.46,2-5.36,2.86-6.36,8.57-6.06,4.45.24,9.16.77,13.2,2.47,20.41,8.55,41.39,15.35,62.51,21.82,5.75,1.76,11.36,4.08,17,6.38a5.44,5.44,0,0,0,5.48-.33c29.32-18.45,43.56-27.6,77.43-31.37Z"/><path class="cls-2" d="M284.77,278c7.48.07,11.64,5.8,9.14,12a7.87,7.87,0,0,1-4.36,3.95c-9.78,3.27-19.68,6.22-29.55,9.25-8,2.45-16,4.92-24,7.27-3.88,1.14-6.56-.57-7.52-4.52-1.35-5.6-1-7.08,4.07-9.52,15.6-7.56,31.5-14.29,48.55-17.88,1.47-.3,3-.43,3.67-.52Z"/><path class="cls-3" d="M135.32,263.37c4.26-5.76,10.19-9.08,16.36-11.63A129.67,129.67,0,0,1,171,245.86c10.95-2.61,21.68-.5,32.32,2.29,19.43,5.11,38.94,10,58.33,15.23,7.72,2.1,15.22,5,22.75,7.7a9.63,9.63,0,0,1,4.06,3.1c1.51,1.92.45,3.67-1.87,4.33-13,3.7-26.1,7.24-39,11.39-5.91,1.9-11.41,5.09-17.15,7.59a4.15,4.15,0,0,1-3,.2c-8.09-3.41-16.21-2-24,.52-20.64,6.65-40,16.27-58.94,26.73a8.33,8.33,0,0,1-5.9.49c-18.74-5.88-37.43-11.84-56-18.06-7.61-2.53-14.93-5.87-22.46-8.6-3.8-1.38-7.81-2.15-11.67-3.35-1.11-.34-2.66-1.1-2.85-1.93s.81-2.33,1.7-3a135,135,0,0,1,59.19-25.74c7.61-1.34,15.44-1.68,23.17-2.26,1.89-.14,3.85.58,5.65.88Z"/><path class="cls-4" d="M148.49,253.85c2.94-1.92,5.1-3.46,7.4-4.8,2.72-1.58,5.58-1.64,8.71-1,12,2.46,23.37,6.69,34.77,11,13,5,26.32,9,39.32,14C245,275.55,251,279,257,282.32c3.55,2,5.61,10.5,4.23,15.21-4.27-2.43-4.27-2.43-9,3.22-.73-2.53-1.78-4.63-1.86-6.77-.19-4.53-2.2-7.35-6.43-8.89-21.91-8-43.75-16.08-65.7-23.92-7.08-2.52-14.39-4.43-21.65-6.42-2.29-.62-4.78-.55-8.14-.9Z"/><path class="cls-5" d="M74.61,325.62c15.47,5.83,35.64,13.45,49.6,18.8,9.06,3.47,15.5,6,16.31,6.42a9.46,9.46,0,0,0,1.92,0,41.58,41.58,0,0,0,8-3.17c6.78-3.26,14.88-7.9,17.56-8.88.92-.34,3.61-1.59,7.3-3.37,14.34-8.75,29.39-15.31,44.36-22.12,1.36,3.38,2.51,6.24,3.62,9,6.2-1.68,11.58-3.1,16.93-4.58q26.21-7.21,52.4-14.48c1.56-.43,3.4-.61,4.52-1.59s2.76-3.19,2.46-4.45a6.59,6.59,0,0,0-3.84-4.16,10.22,10.22,0,0,0-4.29-.19,7,7,0,0,1-1.93,1c-9.78,3.27-19.68,6.22-29.55,9.25-8,2.45-16,4.92-24,7.27a6.72,6.72,0,0,1-3.57.19l-.51.15c0-.1,0-.2,0-.3-1.71-.62-2.9-2.19-3.48-4.56-1.12-4.64-1-6.46,1.89-8.33l0,0a4.15,4.15,0,0,1-2.87.16,25.19,25.19,0,0,0-4.27-1.37c-3.28,1.32-4,3.61-6.65,4.79l-2.09.91c-1.38.67-2.79,1.31-4.2,1.94-2.64,1.19-5.3,2.36-7.85,3.71-13.9,7.34-27.73,14.81-41.64,22.14-3.49,2.22-6.91,4.52-10.24,6.93l-.49.35c-5.75,4-10.14,3.7-16,1.93q-9.6-2.89-19.08-6.08-27-9-53.27-20.3c-6.36-2.73-12.83-5.2-19.33-7.57-1.16.62-5.51,2.09-4.69,4,7,6.89,27.94,13.13,36.92,16.51Z"/></g></g></svg>