<svg xmlns="http://www.w3.org/2000/svg" xmlns:xlink="http://www.w3.org/1999/xlink" viewBox="0 0 313.13 104.16"><defs><style>.cls-1{fill:none;}.cls-2{fill:#b21f1f;}.cls-3{fill:#ed9948;}.cls-4{fill:#b3e1f9;}.cls-5{clip-path:url(#clip-path);}.cls-6{fill:#89bdd3;}.cls-7{fill:#e28440;}</style><clipPath id="clip-path"><rect class="cls-1" x="4.07" width="263.5" height="104.16" rx="12.79"/></clipPath></defs><g id="圖層_2" data-name="圖層 2"><g id="圖層_1-2" data-name="圖層 1"><rect class="cls-2" y="57.9" width="8.54" height="8.54" rx="2.27"/><rect class="cls-2" y="67.36" width="8.54" height="22.77" rx="2.83"/><path class="cls-3" d="M254.78,0H16.85A12.79,12.79,0,0,0,4.07,12.79V91.37a12.79,12.79,0,0,0,12.78,12.79h26.7a26.57,26.57,0,1,1,49.06,0H214.77a24.32,24.32,0,1,1,46.49-1.78,12.76,12.76,0,0,0,6.31-11V12.79A12.79,12.79,0,0,0,254.78,0Z"/><rect class="cls-4" x="23.31" y="15.24" width="59.03" height="36.84" rx="6.9"/><rect class="cls-4" x="92.34" y="15.24" width="43.48" height="36.84" rx="6.9"/><g class="cls-5"><path class="cls-4" d="M235.06,15.24h71a7.05,7.05,0,0,1,7.05,7.05V62.75a7.05,7.05,0,0,1-7.05,7.05h-55A23.07,23.07,0,0,1,228,46.73V22.29a7.05,7.05,0,0,1,7.05-7.05Z"/><path class="cls-4" d="M150,15.24h54.86A5.72,5.72,0,0,1,210.59,21V96.58a0,0,0,0,1,0,0h-66.3a0,0,0,0,1,0,0V21A5.72,5.72,0,0,1,150,15.24Z"/><rect class="cls-6" x="176.44" y="15.24" width="1.99" height="80.99"/></g><rect class="cls-7" x="277.8" y="10.97" width="8.54" height="30.36" rx="3.49"/><rect class="cls-7" x="266.3" y="0.06" width="8.54" height="30.36" rx="3.49" transform="translate(255.33 285.81) rotate(-90)"/></g></g></svg>