<svg xmlns="http://www.w3.org/2000/svg" viewBox="0 0 41.73 41.73"><defs><style>.cls-1{fill:#1976d2;}.cls-2{fill:#fafafa;}</style></defs><g id="圖層_2" data-name="圖層 2"><g id="圖層_1-2" data-name="圖層 1"><g id="圖層_2-2" data-name="圖層 2"><g id="圖層_1-2-2" data-name="圖層 1-2"><g id="_733547" data-name=" 733547"><path id="Path_392" data-name="Path 392" class="cls-1" d="M36.51,0H5.22A5.22,5.22,0,0,0,0,5.22V36.51a5.23,5.23,0,0,0,5.22,5.22H36.51a5.24,5.24,0,0,0,5.22-5.22V5.22A5.23,5.23,0,0,0,36.51,0Z"/><path id="Path_393" data-name="Path 393" class="cls-2" d="M35.2,20.86H28.69V15.65c0-1.44,1.16-1.31,2.61-1.31h2.6V7.85H28.69a7.84,7.84,0,0,0-7.85,7.84h0v5.17H15.65v6.52h5.21V41.73h7.85V27.38h3.92Z"/></g></g></g></g></g></svg>