<svg xmlns="http://www.w3.org/2000/svg" viewBox="0 0 164.65 52.07"><defs><style>.cls-1{fill:#00a1ec;}.cls-2{fill:#ffc217;}.cls-3{fill:#ea4848;}.cls-4{fill:#00c08b;}.cls-5{fill:#ff9600;}</style></defs><g id="圖層_2" data-name="圖層 2"><g id="圖層_1-2" data-name="圖層 1"><rect class="cls-1" x="52.74" y="13.82" width="14.48" height="6.58" rx="1.32"/><path class="cls-2" d="M107.05,23v0h0A11.54,11.54,0,0,0,95.53,11.52a11.41,11.41,0,0,0-5,1.12,1.32,1.32,0,0,0-1.3-1.12h-4A1.32,1.32,0,0,0,84,12.84V34.89a1.32,1.32,0,0,0,1.32,1.32h4a1.32,1.32,0,0,0,1.31-1.32V23h0a4.94,4.94,0,1,1,9.88,0V34.92a1.32,1.32,0,0,0,1.31,1.32h4a1.32,1.32,0,0,0,1.32-1.32V23Z"/><path class="cls-3" d="M152.31,11.52a12.35,12.35,0,1,0,12.34,12.34A12.36,12.36,0,0,0,152.31,11.52Zm0,18.1a5.76,5.76,0,1,1,5.76-5.76A5.76,5.76,0,0,1,152.31,29.62Z"/><rect class="cls-4" x="72.49" y="11.52" width="6.58" height="24.69" rx="1.32"/><path class="cls-5" d="M135.35,11.52h-3.94a1.32,1.32,0,0,0-1.32,1.32V14a12.35,12.35,0,1,0,0,19.74V39.5a6,6,0,0,1-11.89,1.07,1.32,1.32,0,0,0-1.3-1.07h-4A1.31,1.31,0,0,0,111.6,41a12.58,12.58,0,0,0,25.07-1.46V12.84A1.32,1.32,0,0,0,135.35,11.52Zm-12.67,18.1a5.76,5.76,0,1,1,5.76-5.76A5.77,5.77,0,0,1,122.68,29.62Z"/><path class="cls-1" d="M62.62,0H44.21a1.32,1.32,0,0,0-1.32,1.32l0,33.57a1.32,1.32,0,0,0,1.31,1.32h4a1.32,1.32,0,0,0,1.32-1.32V6.58H69.2A6.59,6.59,0,0,0,62.62,0Z"/><circle class="cls-4" cx="36.26" cy="32.79" r="3.29"/><path class="cls-4" d="M77,.81a1.31,1.31,0,0,0-2.28,0L72.56,4.46a1.32,1.32,0,0,0,1.14,2h4.21a1.31,1.31,0,0,0,1.14-2Z"/><path class="cls-4" d="M14.93,6.55a14.83,14.83,0,1,0,12.4,22.78,1.32,1.32,0,0,0-1.1-2H21.05a1.35,1.35,0,0,0-.87.33A8.22,8.22,0,0,1,7,24H28.27a1.32,1.32,0,0,0,1.31-1.19,15.44,15.44,0,0,0,.07-1.67A14.88,14.88,0,0,0,14.93,6.55ZM7,18.74a8.23,8.23,0,0,1,15.61,0Z"/></g></g></svg>