<svg xmlns="http://www.w3.org/2000/svg" viewBox="0 0 187.96 148.66"><defs><style>.cls-1{fill:#00a4ef;opacity:0.2;}.cls-2{fill:#ffc06c;}.cls-2,.cls-5{fill-rule:evenodd;}.cls-3{fill:#45bab1;}.cls-4{opacity:0.4;}.cls-5{fill:#ed4848;}.cls-6{fill:#ffba9c;}.cls-7{fill:#ff9d76;}.cls-8{fill:#895429;}.cls-9{fill:#2062a9;}.cls-10{fill:#fff;}.cls-11{fill:#b0c7ff;}.cls-12{fill:#201b2c;}.cls-13{fill:#e8879a;}.cls-14{fill:#d85574;}.cls-15{fill:#4f3c2b;}.cls-16{fill:#577de8;}</style></defs><g id="圖層_2" data-name="圖層 2"><g id="圖層_1-2" data-name="圖層 1"><path class="cls-1" d="M44.94,146.88c0,.79-7.63,1.71-16.42,1.71S12.6,148,12.6,147.16s7.13-1.43,15.92-1.43S44.94,146.09,44.94,146.88Z"/><path class="cls-1" d="M179.49,146.87c0,.83-6.21,1.79-13.36,1.79s-13-.67-13-1.5,5.8-1.49,13-1.49S179.49,146.05,179.49,146.87Z"/><path class="cls-1" d="M117.2,146.9c0,.73-9,1.58-19.46,1.58s-18.87-.59-18.87-1.32,8.45-1.32,18.87-1.32S117.2,146.17,117.2,146.9Z"/><path class="cls-2" d="M1.68,61c2,5.73,16.63,42.07,17.13,45.33s-4.06,26.87-4.63,29.8c-1.13,5.8,2,4.63,6.71,5.48,6.3,1.13,7.37,2.72,8.55-4.5s3.35-25,6.44-28.16c5.4-5.55,27.45-33.55,29.47-35.46,2.76-2.62,1.63-4-4-5.1-8.44-1.71-8.56-3.77-14.25,4S30,96,29.58,95.81c-2-3.72-9.61-32.53-11.5-34.18s-5.23-2.47-8.39-3S-.12,55.82,1.68,61Z"/><path class="cls-2" d="M50,116.15A4.49,4.49,0,0,0,46.33,111L7.45,104a4.47,4.47,0,0,0-5.19,3.62h0a4.47,4.47,0,0,0,3.62,5.19l38.87,7a4.47,4.47,0,0,0,5.2-3.62Z"/><path class="cls-2" d="M47.76,130.08a4.47,4.47,0,0,0-3.62-5.19l-38.87-7a4.47,4.47,0,0,0-3.35.73,4.51,4.51,0,0,0-1.85,2.88h0a4.47,4.47,0,0,0,3.62,5.2l38.87,7a4.49,4.49,0,0,0,5.2-3.62Z"/><path class="cls-3" d="M187.77,111.58a18.07,18.07,0,0,1-1.47,10.32,19,19,0,0,1-7.38,8,31.56,31.56,0,0,1-12.66,4.3q-9,1.24-15.35-1.35a19.86,19.86,0,0,1-7.65-5.62,15,15,0,0,1-3.7-7.59,5.45,5.45,0,0,1,4.77-6.21,4.73,4.73,0,0,1,3.48.79,9.92,9.92,0,0,1,2.82,3.38,24.88,24.88,0,0,0,3.18,4.51,10.23,10.23,0,0,0,4.25,2.7,14.13,14.13,0,0,0,6.61.37,14.62,14.62,0,0,0,8.56-3.78,7.76,7.76,0,0,0,2.55-6.85,6.86,6.86,0,0,0-2.53-4.67,12.15,12.15,0,0,0-5.18-2.23c-2-.39-4.75-.74-8.12-1a58.24,58.24,0,0,1-11.49-2.08,18,18,0,0,1-7.79-4.63,14.71,14.71,0,0,1-3.82-8.47,15.23,15.23,0,0,1,1.51-9.31,17.51,17.51,0,0,1,7.1-7.11,33,33,0,0,1,11.93-3.79,30.67,30.67,0,0,1,9.89.06,20.71,20.71,0,0,1,7.31,2.76,15.66,15.66,0,0,1,4.62,4.29,11.35,11.35,0,0,1,1.93,4.77,5.93,5.93,0,0,1-1,4.18,5,5,0,0,1-3.64,2.31,4.51,4.51,0,0,1-3.37-.62,14.42,14.42,0,0,1-2.87-3.13,16,16,0,0,0-4.73-4.84q-2.6-1.6-7.75-.89a13,13,0,0,0-7.41,3.16,6.16,6.16,0,0,0-2.23,5.45,5.14,5.14,0,0,0,1.43,3,8.5,8.5,0,0,0,3.06,1.91,18.52,18.52,0,0,0,3.74,1c1.24.2,3.28.45,6.11.77a92.45,92.45,0,0,1,9.7,1.37,28.77,28.77,0,0,1,7.59,2.55,14.65,14.65,0,0,1,5.3,4.62A17.15,17.15,0,0,1,187.77,111.58Z"/><path class="cls-3" d="M170,141.25l-6.51.9a2.08,2.08,0,0,1-2.34-1.77L150.7,64.86a2.07,2.07,0,0,1,1.77-2.34l6.51-.9a2.07,2.07,0,0,1,2.34,1.77l10.44,75.52A2.07,2.07,0,0,1,170,141.25Z"/><g class="cls-4"><path class="cls-5" d="M104.72,63.39C92,65.69,56.81,81.93,71.91,115.69c14.31,32,48.3,21.95,55.73,17.25s9.58-4.94,5-10.06-2.91-5.18-8.56-1.66-29.71,13-39.41-11.29C77.43,91.86,92.5,79.84,99.17,77.55c7.14-2.44,8.48-1.53,8.67-8.48C107.93,65.14,107,63,104.72,63.39Z"/><path class="cls-5" d="M60.63,105.5s41.94-17.91,44.85-19.1,4.3-.87,5.13,3.93.63,5.37-4.58,7.45S70.45,113,67.87,114.28s-4.12,2.23-6.42-3.56S59.42,106,60.63,105.5Z"/><path class="cls-5" d="M65.92,120.21s39.19-16.73,41.92-17.84,4-.76,4.94,4,.72,5.33-4.16,7.26S75.37,127.9,73,129.07s-3.83,2.11-6.14-3.68S64.79,120.63,65.92,120.21Z"/></g><path class="cls-6" d="M105.58,18.35c.61.12.44.28,1.22.54s1.86,1,2,.62-.32-.76-.4-1,.36.29.76.07a1.61,1.61,0,0,0,.41-1.74,2,2,0,0,0-1.67-.93,9,9,0,0,0-2.25.31C105.3,16.31,105.58,18.35,105.58,18.35Z"/><path class="cls-6" d="M86.44,10.78,84.28,9.69c.18-1.06,0-3.63.37-4.54s.46-.93.46-.93l1.4,1.26.66.59A2.78,2.78,0,0,0,87,7.21a5.87,5.87,0,0,0,.52,2C87.83,9.83,86.44,10.78,86.44,10.78Z"/><path class="cls-7" d="M87.17,6.07A2.78,2.78,0,0,0,87,7.21c-1.31-.29-1.9-1.33-1.58-1.41s1.05-.32,1.05-.32Z"/><path class="cls-6" d="M87.87,2.27c.07.9,1,2.6.44,2.6s.16,1.89-.48,1.91c-1.56,0-3.35-.93-3.55-1.68a14.93,14.93,0,0,1-.1-2.84Z"/><path class="cls-6" d="M102.23,59.54c-.29-1-1.29-3.3-1.29-3.3l-2.51.9L100,60.63l2.08.47Z"/><path class="cls-8" d="M101.66,58.8c0-.28.69-.42,1-.1.66.75,3.93-.3,4.44-.47a.83.83,0,0,1,.11,1.59l-5.52,2.88a.59.59,0,0,1-.71-.13c-.64-.72-1.38-2.24-1.07-2.43C100.37,60,101.49,60.08,101.66,58.8Z"/><path class="cls-6" d="M55.85,43.08c.94.36,3.41,1,3.41,1l.81-2.54-3.72-.89L54.71,42Z"/><path class="cls-8" d="M56.78,43.08c.2.21-.08.81-.51.84-1,.07-2.14,3.31-2.32,3.82a.83.83,0,0,1-1.33-.88c.2-1.16.83-4.87,1.06-6.13a.59.59,0,0,1,.53-.49c1-.07,2.61.26,2.58.62C56.6,41.31,55.87,42.17,56.78,43.08Z"/><path class="cls-9" d="M94.6,39.48c.86,3.2,7.77,17.07,7.77,17.07a16.22,16.22,0,0,1-4,2.42C96.91,57,92,45.3,90.3,41.3s-8.86-7.43-8.86-7.43c-1.13,6.07-.3,9-4.89,12.39-3.89,2.84-18-2.11-18-2.11-.63-2.38-.51-3.25-.15-3.35s14.59,2.59,16,1.45c1.89-1.54.54-4.53.77-9.08a31.21,31.21,0,0,1,.4-5.41c.13-.42,2.27-1.71,2.62-2,2.62-2.16,8.61.65,8.61.65C87,30.28,93.63,35.86,94.6,39.48Z"/><path class="cls-10" d="M84,7.45c1,0,.82.83,1.5,1.18s1.19-.45,2.14-.17S85.37,26,85.37,26a8.3,8.3,0,0,1-4.42.69c-1.94-.45-6.42-1.47-6.21-2.14S82.13,8,82.13,8A4.29,4.29,0,0,1,84,7.45Z"/><path class="cls-11" d="M87.59,8.46A49.48,49.48,0,0,0,98,13.72c1.79.49,9,2.11,9,2.11l-1.32,2.82a47.57,47.57,0,0,1-8.5-1.15A74.16,74.16,0,0,1,90.07,15c-.4-.19-.74-.23-.93.51s-.87,6.7-1,8,.58,6.14-.46,6.09-3.83-2.24-4-3,1-4.29,1.71-7.5,1.34-3.31,1.83-6.95"/><path class="cls-12" d="M59.23,16.19l1,2.09c.16.32-.08.76-.53,1l-1.28.63-.2-.41.9-.44c.34-.17.52-.51.4-.75l-.77-1.55a.62.62,0,0,0-.84-.13l-.9.45-.2-.41L58.11,16C58.57,15.8,59.07,15.87,59.23,16.19Z"/><path class="cls-6" d="M62.18,16.68c-.43.32-.23.38-.74.87s-1.07,1.46-1.33,1.2,0-.7,0-.89-.17.35-.56.32a1.36,1.36,0,0,1-1-1.19,1.73,1.73,0,0,1,1-1.32,7.39,7.39,0,0,1,1.86-.58C61.66,15,62.18,16.68,62.18,16.68Z"/><path class="cls-12" d="M60.27,18.28c.16.32-.08.76-.54,1l-1.27.63-.21-.41.91-.45c.34-.17.52-.5.4-.74h0l.49-.46Z"/><path class="cls-13" d="M60.36,25,54.5,28a.69.69,0,0,1-.94-.31v0L48.14,17.26a1.13,1.13,0,0,1,.59-1.76l5.45-3a1.56,1.56,0,0,1,1.93.73l4.7,9.3.17.34A1.52,1.52,0,0,1,60.36,25Z"/><path class="cls-14" d="M60.36,25,54.5,28a.69.69,0,0,1-.94-.31v0a5.11,5.11,0,0,1,1.69-1,19.33,19.33,0,0,0,5.57-4l.17.34A1.52,1.52,0,0,1,60.36,25Z"/><path class="cls-11" d="M82.07,16.81a35.07,35.07,0,0,0-1.59,5.94c-.34,1.45-.16,5-1.66,5.57s-6.5,1-6.75.44-.09-2.28,2-4.39a16.79,16.79,0,0,0,2.87-4.79,27.63,27.63,0,0,0,.66-6.87c-.06-.33-3.78-.56-7,1.36s-9,3.45-8.57,3.37c-.41-1.15-1-1.78-1.21-2.62,1.11-1,6.67-3.52,8.68-4.49a41.39,41.39,0,0,1,8.19-2.84,45.65,45.65,0,0,1,6.48,0A75.92,75.92,0,0,1,82.07,16.81Z"/><path class="cls-15" d="M86.38,3.11c.5.07.51.19.86,0s-.24-.65.41-.74S89,2.29,89.1,1.55c.12-1.06-.83-.92-1.42-.81C87.3.81,87.23,0,86.47,0c-.59,0-.53.36-1.06.39-.31,0-.92-.52-1.43-.15-.94.69-.19,1.58-1,2.32s1.1,2.8,1.35,2.58-.11-1.19.18-1.39.48,0,.83.39,1.08.41.64-.29S85.94,3.05,86.38,3.11Z"/><path class="cls-16" d="M86.25,8.82a.5.5,0,0,0-.33-.65c-.29-.1-.35,0-.67.12a6.14,6.14,0,0,1-3.59.31c-1.3-.35-3.5-3.11-5.51-3.43s-3.21,1.11-6,.48S64.85,2.78,64,2.6s-1.39-.19-1.49.13a1.69,1.69,0,0,0,.55,1.43,36.92,36.92,0,0,0,6.55,3c2.21.54,4.76-.64,6.15-.23s3.94,2.31,5.56,2.84c1.8.6,4-.89,4.13-.77a.54.54,0,0,0,.42.27C86.06,9.31,86.19,9,86.25,8.82Z"/></g></g></svg>