<svg xmlns="http://www.w3.org/2000/svg" viewBox="0 0 153.37 147.23"><defs><style>.cls-1{fill:#f3c22d;}.cls-2{fill:#ffdf8f;}.cls-3{fill:#fff;}.cls-4{fill:#545454;}.cls-5{fill:#e8f2f3;}.cls-6{fill:#8091b0;}.cls-7{fill:#fc5954;}.cls-8{fill:#56c6be;}.cls-9{fill:#00a99d;}</style></defs><g id="圖層_2" data-name="圖層 2"><g id="圖層_1-2" data-name="圖層 1"><ellipse class="cls-1" cx="115.54" cy="107.04" rx="37.83" ry="19.31"/><path class="cls-1" d="M77.71,95.36V107s18.08,17.82,37.83,16,37.57-13.79,37.57-13.79V97.6Z"/><ellipse class="cls-2" cx="115.54" cy="95.36" rx="37.83" ry="19.31"/><path class="cls-3" d="M115.54,113.21c-19,0-34.52-8-34.52-17.85s15.49-17.85,34.52-17.85,34.51,8,34.51,17.85S134.57,113.21,115.54,113.21Zm0-34.76C97,78.45,82,86,82,95.36S97,112.27,115.54,112.27s33.58-7.58,33.58-16.91S134.05,78.45,115.54,78.45Z"/><ellipse class="cls-1" cx="107.31" cy="88.56" rx="29.6" ry="15.11"/><path class="cls-1" d="M77.71,79.42v9.14s14.14,13.94,29.6,12.54S136.7,90.31,136.7,90.31V81.17Z"/><ellipse class="cls-2" cx="107.31" cy="79.42" rx="29.6" ry="15.11"/><path class="cls-3" d="M107.3,93.49c-14.94,0-27.1-6.31-27.1-14.07s12.16-14.06,27.1-14.06,27.11,6.31,27.11,14.06S122.25,93.49,107.3,93.49Zm0-27.2c-14.43,0-26.17,5.89-26.17,13.13S92.87,92.55,107.3,92.55s26.18-5.89,26.18-13.13S121.74,66.29,107.3,66.29Z"/><path class="cls-4" d="M104.19,8.13c0-4.49-3.38-8.13-7.55-8.13h-65c-4.17,0-7.55,3.64-7.55,8.13V126.26a7.85,7.85,0,0,0,7.55,8.12h65a7.85,7.85,0,0,0,7.55-8.12Z"/><path class="cls-3" d="M28.92,119.58V10.11c0-2.94,1.58-5,4.52-5h20L56,11.55h9V124.62H33.14a4.4,4.4,0,0,1-4.22-4.44A4,4,0,0,1,28.92,119.58Z"/><path class="cls-3" d="M100,119.58V10.11c0-2.94-1.58-5-4.52-5H76.78l-3.25,6.46H63.9V124.62H95.77a4.4,4.4,0,0,0,4.22-4.44A4,4,0,0,0,100,119.58Z"/><path class="cls-5" d="M89.48,74.66H41.11a5.08,5.08,0,0,0-4.89,4.86V110.9a4.78,4.78,0,0,0,4.89,4.51H89.48a4.29,4.29,0,0,0,4.31-4.51V79.52C93.79,77,92,74.66,89.48,74.66Z"/><rect class="cls-6" x="75.57" y="85.88" width="8.46" height="2.66"/><rect class="cls-6" x="46.55" y="85.88" width="20.3" height="2.66"/><rect class="cls-6" x="56.06" y="94.41" width="27.97" height="2.66"/><rect class="cls-6" x="46.55" y="94.41" width="3.63" height="2.66"/><rect class="cls-6" x="81.33" y="102.93" width="2.09" height="2.66"/><rect class="cls-6" x="45.94" y="102.93" width="26.89" height="2.66"/><path class="cls-7" d="M73.74,87a2.69,2.69,0,1,1-2.68-2.68A2.68,2.68,0,0,1,73.74,87Z"/><path class="cls-7" d="M79.94,104a2.69,2.69,0,1,1-2.68-2.68A2.68,2.68,0,0,1,79.94,104Z"/><rect class="cls-8" x="44.61" y="57.78" width="6.76" height="10.4"/><rect class="cls-9" x="53.99" y="47.92" width="7.29" height="20.26"/><rect class="cls-8" x="64.12" y="50.39" width="7.29" height="18.07"/><rect class="cls-9" x="74.18" y="38.89" width="7.89" height="29.57"/><path class="cls-7" d="M43.63,49.65l-1.4-1.1,9.69-12.26A.88.88,0,0,1,53,36.05l11.51,5.69L77.73,27.2,79,28.39l-13.66,15a.89.89,0,0,1-1,.2L52.87,38Z"/><path class="cls-7" d="M81,27.94a2.39,2.39,0,0,1-2.68,2.12,2.45,2.45,0,0,1-2.16-2.69,2.4,2.4,0,0,1,2.68-2.12A2.44,2.44,0,0,1,81,27.94Z"/><path class="cls-7" d="M67.47,42.54a2.53,2.53,0,1,1-2.21-3A2.61,2.61,0,0,1,67.47,42.54Z"/><path class="cls-7" d="M54.64,37.38a2,2,0,1,1-1.77-2.21A2,2,0,0,1,54.64,37.38Z"/><path class="cls-7" d="M44.77,49.92a2.39,2.39,0,1,1-2.13-2.63A2.39,2.39,0,0,1,44.77,49.92Z"/><ellipse class="cls-1" cx="22.73" cy="135.63" rx="22.73" ry="11.6"/><path class="cls-1" d="M0,128.62v7s10.86,10.71,22.73,9.63S45.29,137,45.29,137v-7Z"/><ellipse class="cls-2" cx="22.73" cy="128.62" rx="22.73" ry="11.6"/><path class="cls-3" d="M22.72,139.42c-11.47,0-20.81-4.85-20.81-10.8s9.34-10.8,20.81-10.8,20.82,4.84,20.82,10.8S34.2,139.42,22.72,139.42Zm0-20.88c-11.07,0-20.09,4.52-20.09,10.08s9,10.08,20.09,10.08,20.1-4.52,20.1-10.08S33.8,118.54,22.72,118.54Z"/></g></g></svg>