<svg xmlns="http://www.w3.org/2000/svg" viewBox="0 0 33.09 33.09"><defs><style>.cls-1{fill:#ed5656;}.cls-2{fill:#fff;}</style></defs><g id="圖層_2" data-name="圖層 2"><g id="圖層_1-2" data-name="圖層 1"><circle class="cls-1" cx="16.55" cy="16.55" r="16.55"/><path class="cls-2" d="M23.93,8.28a6,6,0,0,0-2.85-.73,5.86,5.86,0,0,0-4.53,2.14A5.89,5.89,0,0,0,12,7.55a6,6,0,0,0-2.85.73,5.91,5.91,0,0,0-3,5.17,5.72,5.72,0,0,0,.29,1.81c1,4.55,10.14,10.28,10.14,10.28s9.12-5.73,10.13-10.28a5.72,5.72,0,0,0,.3-1.81A5.9,5.9,0,0,0,23.93,8.28Z"/></g></g></svg>