<svg xmlns="http://www.w3.org/2000/svg" viewBox="0 0 41.73 41.73"><defs><style>.cls-1{fill:#06c755;}.cls-2{fill:#fff;}</style></defs><g id="圖層_2" data-name="圖層 2"><g id="圖層_1-2" data-name="圖層 1"><rect class="cls-1" width="41.73" height="41.73" rx="9.41"/><path class="cls-2" d="M34.77,18.9c0-6.23-6.24-11.29-13.91-11.29S7,12.67,7,18.9c0,5.58,5,10.25,11.63,11.13.45.1,1.07.3,1.23.69a2.82,2.82,0,0,1,0,1.26s-.16,1-.2,1.19-.28,1.38,1.21.75,8-4.72,10.93-8.08h0A10.06,10.06,0,0,0,34.77,18.9Z"/><path class="cls-1" d="M30.14,22.49H26.23a.26.26,0,0,1-.26-.26h0V16.16h0a.26.26,0,0,1,.26-.26h3.91a.27.27,0,0,1,.27.26v1a.27.27,0,0,1-.27.27H27.49v1h2.65a.27.27,0,0,1,.27.27v1a.27.27,0,0,1-.27.27H27.49v1h2.65a.27.27,0,0,1,.27.27v1A.27.27,0,0,1,30.14,22.49Z"/><path class="cls-1" d="M15.68,22.49a.27.27,0,0,0,.27-.26v-1a.27.27,0,0,0-.27-.27H13V16.15a.27.27,0,0,0-.27-.26h-1a.27.27,0,0,0-.27.26v6.07h0a.27.27,0,0,0,.27.26h3.9Z"/><rect class="cls-1" x="16.79" y="15.89" width="1.52" height="6.6" rx="0.27"/><path class="cls-1" d="M24.75,15.89h-1a.27.27,0,0,0-.27.26v3.61L20.72,16s0,0,0,0h0l0,0H19.52a.27.27,0,0,0-.27.26v6.08a.27.27,0,0,0,.27.26h1a.27.27,0,0,0,.27-.26V18.62l2.78,3.76s0,.05.07.06h1.13a.27.27,0,0,0,.27-.26V16.15A.27.27,0,0,0,24.75,15.89Z"/></g></g></svg>