<svg xmlns="http://www.w3.org/2000/svg" viewBox="0 0 21.85 21.85"><defs><style>.cls-1{fill:#1976d2;}</style></defs><g id="圖層_2" data-name="圖層 2"><g id="圖層_1-2" data-name="圖層 1"><g id="グループ_166" data-name="グループ 166"><g id="楕円形_62" data-name="楕円形 62"><path class="cls-1" d="M10.92,21.85A10.93,10.93,0,1,1,21.85,10.92,10.94,10.94,0,0,1,10.92,21.85Zm0-20.9a10,10,0,1,0,10,10A10,10,0,0,0,10.92,1Z"/><path class="cls-1" d="M10.92,21.37A10.45,10.45,0,1,1,21.37,10.92,10.46,10.46,0,0,1,10.92,21.37Zm0-19a8.55,8.55,0,1,0,8.55,8.55A8.57,8.57,0,0,0,10.92,2.37Z"/></g><path class="cls-1" d="M10.41,14.47a1,1,0,0,1-.67-1.62l1.91-1.91L9.74,9a.95.95,0,1,1,1.34-1.34l2.58,2.58a1,1,0,0,1,.28.67.93.93,0,0,1-.28.67l-2.58,2.58A.92.92,0,0,1,10.41,14.47Z"/></g></g></g></svg>