<svg xmlns="http://www.w3.org/2000/svg" xmlns:xlink="http://www.w3.org/1999/xlink" viewBox="0 0 289.74 337.63"><defs><style>.cls-1{isolation:isolate;}.cls-2{fill:#ea997d;}.cls-3{fill:#d87e66;}.cls-4{fill:#f7d8c1;}.cls-5{fill:#6d3429;}.cls-6{fill:#662a1e;}.cls-7{fill:#773626;}.cls-8{fill:#db9421;}.cls-9{fill:#eaa41e;}.cls-10{fill:#f4b65b;}.cls-11{fill:#f7b7b7;}.cls-11,.cls-12{opacity:0.45;}.cls-12{fill:url(#未命名漸層_7);}.cls-13{fill:#0a3940;}.cls-14,.cls-17,.cls-22{fill:#fff;}.cls-15{fill:#545454;}.cls-16{fill:#dcf4f1;}.cls-17{mix-blend-mode:soft-light;}.cls-18,.cls-23{fill:#009e96;}.cls-19{fill:#f4900c;}.cls-20{fill:#207ded;}.cls-21{font-size:9.11px;font-family:NotoSansCJKtc-Bold-B5pc-H, Noto Sans CJK TC;letter-spacing:0.02em;}.cls-22{font-size:6.57px;letter-spacing:0.02em;}.cls-22,.cls-23{font-family:NotoSansCJKtc-Regular-B5pc-H, Noto Sans CJK TC;}.cls-23{font-size:5px;letter-spacing:0.03em;}.cls-24{fill:none;stroke:#009e96;stroke-miterlimit:10;stroke-width:0.5px;}.cls-25{fill:#edcdbc;}.cls-26{opacity:0.46;}.cls-27{fill:#db715d;}</style><linearGradient id="未命名漸層_7" x1="-232.09" y1="66.19" x2="-224.3" y2="66.19" gradientTransform="translate(374.87)" gradientUnits="userSpaceOnUse"><stop offset="0" stop-color="#f7b7b7" stop-opacity="0"/><stop offset="0.1" stop-color="#f7b7b7" stop-opacity="0.04"/><stop offset="0.27" stop-color="#f7b7b7" stop-opacity="0.13"/><stop offset="0.47" stop-color="#f7b7b7" stop-opacity="0.29"/><stop offset="0.72" stop-color="#f7b7b7" stop-opacity="0.51"/><stop offset="0.98" stop-color="#f7b7b7" stop-opacity="0.78"/><stop offset="1" stop-color="#f7b7b7" stop-opacity="0.8"/></linearGradient></defs><g class="cls-1"><g id="圖層_2" data-name="圖層 2"><g id="圖層_1-2" data-name="圖層 1"><path class="cls-2" d="M191.58,286.68c-1.07-19.9,0-29.58-.21-49L80.64,227.45c2,8.93,7.76,19.77,10.33,29.83a126.07,126.07,0,0,1,3.8,26.17S138,297,191.58,286.68Z"/><path class="cls-3" d="M172.15,253.09c5.74,1.3,12.62.84,19.16-.33.07-4.52.12-9.38.06-15.08L80.64,227.45c2,8.93,7.76,19.77,10.33,29.83a127.59,127.59,0,0,1,3.14,17.37A109.83,109.83,0,0,0,125.54,269C146.91,261.58,158.67,250.06,172.15,253.09Z"/><path class="cls-4" d="M151.26,126.59s12,8,11.31,11.67-13.08,17.8-23.28,14S115,136.19,115,136.19"/><path class="cls-5" d="M122.86,20.49S124.75.3,109.8,0,89.71,8.14,90.93,17.78s1.23,14.14-5.64,23.47S69.37,67.74,76,84.6s13.73,26.19,1.47,37.32c0,0,2.7,6.24,12.75,1.77,0,0-.49,10.57-7.85,14.49,0,0,18.87,11.95,27-14.49,0,0,1.55,10.57-.94,14.79,0,0,12.95.3,12.21-17.76s-4.53-26,.19-40.83S122.86,20.49,122.86,20.49Z"/><path class="cls-6" d="M91.67,121.17a.35.35,0,0,1-.27-.14.54.54,0,0,1,0-.64c.07-.07,6.12-7.43.9-22.47-6.85-19.75-6.15-37.41,2.18-55.59a.33.33,0,0,1,.5-.17.5.5,0,0,1,.14.61C86.92,60.69,86.24,78.1,93,97.56c5.43,15.66-1,23.41-1.06,23.49A.33.33,0,0,1,91.67,121.17Z"/><path class="cls-6" d="M109.31,119.05h-.08a.46.46,0,0,1-.28-.54c0-.11,1.92-11.34,0-20.65-.48-2.34-1-4.56-1.58-6.71-1.66-6.61-3.23-12.86-2.12-20.78a.39.39,0,0,1,.43-.37.46.46,0,0,1,.3.52c-1.08,7.71.46,13.86,2.09,20.36.55,2.16,1.11,4.4,1.59,6.76,2,9.52,0,20.94,0,21.06A.4.4,0,0,1,109.31,119.05Z"/><ellipse class="cls-7" cx="136.11" cy="50.43" rx="37.48" ry="40.55"/><path class="cls-8" d="M175.43,138.26s28.81,22.49,58.71,59.65c0,0,0,24.14-22.79,26.88-11.8,1.42-16.29,1.8-23.27,7.94l-8.31-5.09S156.92,154.24,175.43,138.26Z"/><path class="cls-9" d="M189.12,188.59c-2.4-8.25-16.49-27.49-16.49-31.1s2.58-19.24,2.58-19.24c-4.64-1.55-17.45-6.67-17.45-6.67s4,12.45-12.1,13.37c-30.56,1.74-35.94-16.42-35.94-16.42-16.29,2.64-34.62,7.4-41.47,12C44.58,156.63,9.3,201.3,9.3,201.3c9.85,16,19.54,15.1,28.82,18.53,2.81,1,14,11.31,22.49,11.19L75,201l-5.07,99.42c9.62,12.71,50.17-2.68,61.17-2.68s20.66-6.88,30.14-3.73,28.68,0,28.68,0S191.53,196.83,189.12,188.59Z"/><path class="cls-10" d="M78.81,197.91a.66.66,0,0,1-.43-.16.68.68,0,0,1-.1-1c.15-.19,14.9-18.31,21-28.07a.69.69,0,0,1,1-.23.69.69,0,0,1,.22.95c-6.1,9.84-20.9,28-21.05,28.21A.7.7,0,0,1,78.81,197.91Z"/><path class="cls-10" d="M131.8,239.78a1,1,0,0,1-.59-.19,1,1,0,0,1-.23-1.41l25.19-34.65.36,2.45c.06.39,1.39,9.8-2.68,22.33a1,1,0,1,1-1.92-.62,56.28,56.28,0,0,0,2.8-18.74l-22.11,30.42A1,1,0,0,1,131.8,239.78Z"/><path class="cls-10" d="M76.07,199.92a.66.66,0,0,1-.28,0,.68.68,0,0,1-.35-.91c.07-.16,7.29-16.41,10.51-22.71a.69.69,0,0,1,1.23.62c-3.21,6.27-10.41,22.48-10.49,22.65A.68.68,0,0,1,76.07,199.92Z"/><path class="cls-4" d="M117.38,85.57s-1.22,43.21-7.17,45.76c0,0,10.9,13.78,23.66,12.08s23.89-11.83,23.89-11.83-20.32-28.85-4.16-49Z"/><path class="cls-11" d="M148.43,96.75s-3.54,4.33,2.14,21.45c0,0-20.43-2-25.58-24.94S148.43,96.75,148.43,96.75Z"/><ellipse class="cls-4" cx="109.53" cy="63.49" rx="7.62" ry="13.06" transform="translate(-5.68 11.02) rotate(-5.61)"/><ellipse class="cls-4" cx="141.64" cy="64.56" rx="29.49" ry="37.48"/><path class="cls-12" d="M146.69,53.93s4.89,15.55,3.69,18.79-7.6,5.73-7.6,5.73"/><ellipse class="cls-13" cx="137.17" cy="61.79" rx="2.64" ry="3.57"/><ellipse class="cls-13" cx="159.33" cy="61.41" rx="2.43" ry="3.29"/><path class="cls-7" d="M129.09,50.31s6.43-8.37,14.72,0C143.81,50.31,132.92,46.86,129.09,50.31Z"/><path class="cls-7" d="M163.51,51.07s-6.44-10.08-14.72,0C148.79,51.07,159.67,46.91,163.51,51.07Z"/><circle class="cls-14" cx="137.86" cy="61.19" r="0.69"/><circle class="cls-14" cx="158.91" cy="60.6" r="0.82"/><path class="cls-11" d="M112.15,60.5s-5-.31-5.17,2.17,6.63,12.18,6.62,8.33C113.6,70.06,111.82,62.09,112.15,60.5Z"/><rect class="cls-15" x="177.1" y="99.3" width="112.62" height="201.87" rx="16.23"/><path class="cls-16" d="M270,104.46h-9.87v2.74c0,3.69-2.9,5.1-6.48,5.1H213.25c-3.58,0-6.48-1.41-6.48-5.1v-2.74h-9.86A15.14,15.14,0,0,0,182,119.81l0,159.35a15.15,15.15,0,0,0,14.92,15.37h73a15.16,15.16,0,0,0,14.92-15.36l0-159.36A15.14,15.14,0,0,0,270,104.46Z"/><rect class="cls-17" x="224.22" y="104.5" width="26.4" height="3.53" rx="1.69"/><path class="cls-17" d="M217.83,106.26a2.32,2.32,0,1,1-2.32-2.32A2.32,2.32,0,0,1,217.83,106.26Z"/><rect class="cls-14" x="186.82" y="136.03" width="94.64" height="129.88" rx="4.95"/><path class="cls-18" d="M191.77,136h84.74a5,5,0,0,1,5,5v10a0,0,0,0,1,0,0H186.82a0,0,0,0,1,0,0V141A5,5,0,0,1,191.77,136Z"/><path class="cls-19" d="M231.6,227.45a32.84,32.84,0,1,1,0-65.68v11.08a21.76,21.76,0,1,0,21.76,21.75h11.08A32.88,32.88,0,0,1,231.6,227.45Z"/><path class="cls-20" d="M264.44,194.6H253.36a21.78,21.78,0,0,0-21.76-21.75V161.77A32.87,32.87,0,0,1,264.44,194.6Z"/><text class="cls-21" transform="translate(216.17 199.57)">13,032</text><path d="M203.68,252.76h1.07v-3.58h-.85v-.38a3.09,3.09,0,0,0,1-.34h.46v4.3h1v.5h-2.63Z"/><path d="M207.19,252.91c1.51-1.32,2.21-2.28,2.21-3.1a.85.85,0,0,0-.89-.95,1.32,1.32,0,0,0-1,.56l-.35-.34a1.81,1.81,0,0,1,1.41-.71,1.32,1.32,0,0,1,1.4,1.42c0,1-.75,1.93-1.88,3,.25,0,.54,0,.79,0h1.33v.51h-3Z"/><path d="M211.06,254.15a1,1,0,0,0,.65-.89h-.07a.41.41,0,0,1-.44-.42.42.42,0,0,1,.45-.42c.32,0,.51.27.51.71a1.46,1.46,0,0,1-1,1.37Z"/><path d="M213,250.84c0-1.67.58-2.47,1.5-2.47s1.49.81,1.49,2.47-.58,2.51-1.49,2.51S213,252.52,213,250.84Zm2.41,0c0-1.4-.37-2-.91-2s-.92.59-.92,2,.37,2,.92,2S215.43,252.26,215.43,250.84Z"/><path d="M216.69,252.69l.3-.39a1.6,1.6,0,0,0,1.19.55.89.89,0,0,0,1-.89c0-.58-.39-1-1.5-1v-.46c1,0,1.33-.4,1.33-.92a.74.74,0,0,0-.81-.77,1.52,1.52,0,0,0-1,.47l-.32-.38a1.94,1.94,0,0,1,1.35-.57c.8,0,1.39.43,1.39,1.2a1.18,1.18,0,0,1-.86,1.16v0a1.24,1.24,0,0,1,1,1.22,1.4,1.4,0,0,1-1.54,1.37A2,2,0,0,1,216.69,252.69Z"/><path d="M220.59,252.91c1.5-1.32,2.2-2.28,2.2-3.1a.85.85,0,0,0-.89-.95,1.32,1.32,0,0,0-1,.56l-.35-.34a1.83,1.83,0,0,1,1.42-.71,1.32,1.32,0,0,1,1.39,1.42c0,1-.75,1.93-1.88,3,.25,0,.54,0,.79,0h1.33v.51h-3Z"/><path d="M208.56,244.42v.36h-5.73v-.36h2.61v-.35h-2v-.32h2v-.32a9,9,0,0,0-1.6.08,3.42,3.42,0,0,0-.11-.35,1.18,1.18,0,0,0,.36-.09,4.53,4.53,0,0,0,.64-.32H203.6v-.3h4.16v.3H207a7.35,7.35,0,0,1,.93.65l-.3.25c-.08-.08-.2-.17-.32-.27l-1.4,0v.34H208v.32h-2.05v.35Zm-3.12-4.75h-2.6v-.34h2.6v-.39h.48v.39h2.64v.34h-2.64V240h2.15v.32h-4.75V240h2.12Zm2.53,3.09v-.59h-4.56v.59H203v-.93h5.46v.93Zm-.17-2.16v1h-4.19v-1Zm-.48.29h-3.25v.38h3.25Zm-2,1.86a4.73,4.73,0,0,1-.69.38l2.28,0a5.32,5.32,0,0,0-.5-.29l.06-.06Z"/><path d="M215,240a3.13,3.13,0,0,1-.72,1.26,3.13,3.13,0,0,0,1.16.67,1.76,1.76,0,0,0-.27.34,3.37,3.37,0,0,1-1.18-.74,4,4,0,0,1-1.16.66,1.81,1.81,0,0,0-.24-.37,4,4,0,0,0,1.12-.59,4.51,4.51,0,0,1-.55-.9,2.83,2.83,0,0,1-.37.4,2.12,2.12,0,0,0-.3-.3v1.68h-.39v-1.76h-.81v1.87h-.33v-1.87h-.81v1.94h-.38V240h1.14V239h.43V240h1.15v.38a3,3,0,0,0,.92-1.46l.41.08a2.89,2.89,0,0,1-.22.58h1.78V240Zm-4.77,0a4,4,0,0,0-.44-.75l.34-.15a2.84,2.84,0,0,1,.46.73Zm4.54,4.09c0,.25-.05.37-.26.44a4.17,4.17,0,0,1-1.09.07,1.62,1.62,0,0,0-.17-.41h.91c.1,0,.14,0,.14-.12v-1h-1.64v1.88h-.47v-1.88h-1.52v1.56h-.48v-2h2v-.41h.47v.41h2.11Zm-4-3.43a3.77,3.77,0,0,1-.3,1.07.79.79,0,0,0-.26-.13,3.07,3.07,0,0,0,.28-1Zm1-.06a4.14,4.14,0,0,1,.28,1l-.26.08a5.18,5.18,0,0,0-.26-1Zm.81-1.37a8.19,8.19,0,0,1-.56.77l-.3-.13a5.8,5.8,0,0,0,.45-.8Zm.91.78a3.18,3.18,0,0,0,.56,1,2.84,2.84,0,0,0,.55-1Z"/><path d="M216.78,243.19a8.68,8.68,0,0,1-.33,1.59,1.78,1.78,0,0,0-.37-.14,5.91,5.91,0,0,0,.32-1.51Zm1.13-.31c0-.11,0-.25-.08-.4a7.22,7.22,0,0,0-1.54.36,3.64,3.64,0,0,0-.15-.42c.14,0,.27-.19.46-.44a9.25,9.25,0,0,0,.53-.78,3.09,3.09,0,0,0-.88.18c0-.1-.1-.31-.15-.44.11,0,.21-.15.32-.36a7.48,7.48,0,0,0,.75-1.64l.44.17a10,10,0,0,1-.9,1.76l.66-.07a8.53,8.53,0,0,0,.44-.85l.41.2a13.1,13.1,0,0,1-1.37,2.12l.9-.15a5.32,5.32,0,0,0-.16-.57l.35-.09a9.71,9.71,0,0,1,.34,1.3Zm-.54.24a10.85,10.85,0,0,1,.19,1.4l-.37.08c0-.38-.09-1-.16-1.41ZM218,243a8.08,8.08,0,0,1,.37,1.07l-.35.13a10.76,10.76,0,0,0-.36-1.1Zm1.66.16a8.59,8.59,0,0,1-.92,1.39c-.09-.07-.28-.21-.38-.27a6.44,6.44,0,0,0,.86-1.25Zm.85-.6v2.37H220v-2.37h-1.56v-.43H222v.43ZM219,240.85h-.44v-1.09h1.5c-.08-.22-.18-.49-.28-.71l.45-.12a7.06,7.06,0,0,1,.35.83H222v1.09h-.46v-.66H219Zm.07.52v-.43h2.35v.43Zm2.19,1.62a9.48,9.48,0,0,1,.81,1.29l-.42.2a12.53,12.53,0,0,0-.78-1.33Z"/><path d="M225.16,240.26a8,8,0,0,1-.85,1.48v3.18h-.48v-2.61a4.7,4.7,0,0,1-.78.69,2.76,2.76,0,0,0-.25-.44,5.66,5.66,0,0,0,1.82-2.3H223v-.47h1.81c.11-.28.21-.57.29-.85l.5.12c-.08.25-.16.49-.26.73h3.35v.47Zm3.67,2.87h-1.75v1.22c0,.28-.06.42-.28.5a4.53,4.53,0,0,1-1.13.07,2.1,2.1,0,0,0-.16-.46,6.89,6.89,0,0,0,.94,0c.11,0,.14,0,.14-.12v-1.21h-1.81v-.46h1.81v-.53a4.9,4.9,0,0,0,1-.7h-2.22V241H228l.1,0,.31.25a6.41,6.41,0,0,1-1.33,1.08v.38h1.75Z"/><path class="cls-19" d="M196.5,254.38a1.12,1.12,0,0,1-1.12-1.12V240.93a1.12,1.12,0,0,1,2.24,0v12.33A1.12,1.12,0,0,1,196.5,254.38Z"/><path d="M247.75,252.76h1.07v-3.58H248v-.38a3.09,3.09,0,0,0,1-.34h.46v4.3h1v.5h-2.64Z"/><path d="M251.32,254.15a1,1,0,0,0,.66-.89h-.07a.41.41,0,0,1-.44-.42.42.42,0,0,1,.45-.42c.31,0,.5.27.5.71a1.45,1.45,0,0,1-.95,1.37Z"/><path d="M253.28,250.84c0-1.67.59-2.47,1.5-2.47s1.5.81,1.5,2.47-.59,2.51-1.5,2.51S253.28,252.52,253.28,250.84Zm2.41,0c0-1.4-.36-2-.91-2s-.91.59-.91,2,.36,2,.91,2S255.69,252.26,255.69,250.84Z"/><path d="M257,252.69l.31-.39a1.59,1.59,0,0,0,1.19.55.89.89,0,0,0,1-.89c0-.58-.39-1-1.5-1v-.46c1,0,1.33-.4,1.33-.92a.74.74,0,0,0-.81-.77,1.52,1.52,0,0,0-1,.47l-.32-.38a1.94,1.94,0,0,1,1.34-.57c.81,0,1.4.43,1.4,1.2a1.19,1.19,0,0,1-.86,1.16v0a1.23,1.23,0,0,1,1,1.22,1.39,1.39,0,0,1-1.54,1.37A2,2,0,0,1,257,252.69Z"/><path d="M260.85,252.91c1.51-1.32,2.21-2.28,2.21-3.1a.85.85,0,0,0-.89-.95,1.32,1.32,0,0,0-1,.56l-.35-.34a1.81,1.81,0,0,1,1.41-.71,1.32,1.32,0,0,1,1.4,1.42c0,1-.75,1.93-1.88,3,.25,0,.54,0,.79,0h1.33v.51h-3Z"/><path d="M249.59,239.91l.34.12c-.34,2.57-1.35,4.11-2.74,4.87a2.16,2.16,0,0,0-.4-.4,4.36,4.36,0,0,0,1.86-1.87,11.78,11.78,0,0,0-1.06-1.1,4.08,4.08,0,0,1-.42.61,2.09,2.09,0,0,0-.4-.3,6.55,6.55,0,0,0,1.25-2.9l.48.09c-.07.31-.15.62-.24.91h1.23Zm-1.49.49a6.21,6.21,0,0,1-.31.75,11.77,11.77,0,0,1,1.08,1,8.58,8.58,0,0,0,.49-1.76Zm3.07.51a13.31,13.31,0,0,1,1.61,1.48l-.38.34a11.64,11.64,0,0,0-1.41-1.37v3.56h-.5v-6h.5v2.11Z"/><path d="M259,240a3.13,3.13,0,0,1-.72,1.26,3.13,3.13,0,0,0,1.16.67,1.76,1.76,0,0,0-.27.34,3.24,3.24,0,0,1-1.17-.74,4.23,4.23,0,0,1-1.16.66,2.4,2.4,0,0,0-.25-.37,4,4,0,0,0,1.12-.59,4.51,4.51,0,0,1-.55-.9,2.83,2.83,0,0,1-.37.4,2.12,2.12,0,0,0-.3-.3v1.68h-.39v-1.76h-.81v1.87H255v-1.87h-.81v1.94h-.38V240H255V239h.43V240h1.15v.38a3,3,0,0,0,.92-1.46l.41.08a2.89,2.89,0,0,1-.22.58h1.78V240Zm-4.77,0a4,4,0,0,0-.44-.75l.34-.15a2.59,2.59,0,0,1,.46.73Zm4.54,4.09c0,.25-.05.37-.26.44a4.17,4.17,0,0,1-1.09.07,1.62,1.62,0,0,0-.17-.41h.91c.1,0,.14,0,.14-.12v-1H256.7v1.88h-.47v-1.88h-1.52v1.56h-.48v-2h2v-.41h.47v.41h2.11Zm-4-3.43a3.47,3.47,0,0,1-.3,1.07.79.79,0,0,0-.26-.13,3.07,3.07,0,0,0,.28-1Zm.95-.06a4.14,4.14,0,0,1,.28,1l-.26.08a5.18,5.18,0,0,0-.26-1Zm.81-1.37a8.19,8.19,0,0,1-.56.77l-.3-.13a5.8,5.8,0,0,0,.45-.8Zm.91.78a3.18,3.18,0,0,0,.56,1,2.84,2.84,0,0,0,.55-1Z"/><path d="M260.85,243.19a8.68,8.68,0,0,1-.33,1.59,1.78,1.78,0,0,0-.37-.14,5.91,5.91,0,0,0,.32-1.51Zm1.13-.31c0-.11,0-.25-.08-.4a7.22,7.22,0,0,0-1.54.36,2.4,2.4,0,0,0-.15-.42c.14,0,.27-.19.46-.44a9.25,9.25,0,0,0,.53-.78,3.09,3.09,0,0,0-.88.18c0-.1-.1-.31-.15-.44.11,0,.21-.15.32-.36a7.48,7.48,0,0,0,.75-1.64l.44.17a10,10,0,0,1-.9,1.76l.66-.07a8.53,8.53,0,0,0,.44-.85l.41.2a13.1,13.1,0,0,1-1.37,2.12l.9-.15a5.32,5.32,0,0,0-.16-.57l.35-.09a9.71,9.71,0,0,1,.34,1.3Zm-.54.24a10.85,10.85,0,0,1,.19,1.4l-.37.08c0-.38-.09-1-.16-1.41Zm.61-.15a8.08,8.08,0,0,1,.37,1.07l-.35.13a10.76,10.76,0,0,0-.36-1.1Zm1.66.16a8.59,8.59,0,0,1-.92,1.39c-.09-.07-.28-.21-.38-.27a6.44,6.44,0,0,0,.86-1.25Zm.85-.6v2.37h-.48v-2.37h-1.56v-.43h3.56v.43Zm-1.47-1.68h-.44v-1.09h1.5c-.08-.22-.18-.49-.28-.71l.45-.12a7.06,7.06,0,0,1,.35.83h1.38v1.09h-.46v-.66h-2.5Zm.07.52v-.43h2.35v.43Zm2.19,1.62a9.48,9.48,0,0,1,.81,1.29l-.42.2a12.53,12.53,0,0,0-.78-1.33Z"/><path d="M269.23,240.26a8,8,0,0,1-.85,1.48v3.18h-.48v-2.61a4.7,4.7,0,0,1-.78.69,2.76,2.76,0,0,0-.25-.44,5.66,5.66,0,0,0,1.82-2.3h-1.61v-.47h1.81c.11-.28.21-.57.29-.85l.5.12c-.08.25-.16.49-.26.73h3.35v.47Zm3.67,2.87h-1.75v1.22c0,.28-.06.42-.28.5a4.53,4.53,0,0,1-1.13.07,2.1,2.1,0,0,0-.16-.46,6.89,6.89,0,0,0,.94,0c.11,0,.14,0,.14-.12v-1.21h-1.81v-.46h1.81v-.53a4.9,4.9,0,0,0,1-.7H269.4V241h2.67l.1,0,.31.25a6.41,6.41,0,0,1-1.33,1.08v.38h1.75Z"/><path class="cls-20" d="M240.57,254.38a1.12,1.12,0,0,1-1.12-1.12V240.93a1.12,1.12,0,0,1,2.24,0v12.33A1.12,1.12,0,0,1,240.57,254.38Z"/><text class="cls-22" transform="translate(195.08 146.42)">存款概況</text><text class="cls-23" transform="translate(214.36 127.71)">買外幣</text><rect class="cls-24" x="210.89" y="119.19" width="22.35" height="12.54"/><text class="cls-23" transform="translate(238.47 127.71)">繳卡費</text><rect class="cls-24" x="235" y="119.19" width="22.35" height="12.54"/><text class="cls-23" transform="translate(260.03 127.71)">刷卡明細</text><rect class="cls-24" x="259.11" y="119.19" width="22.35" height="12.54"/><text class="cls-23" transform="translate(192.81 127.71)">轉帳</text><rect class="cls-24" x="186.77" y="119.19" width="22.35" height="12.54"/><path class="cls-4" d="M157.76,286.34c3.69-1.26,5.3,29.78,5.3,29.78S18.46,363.05,3.83,318.27,21.18,188.53,21.18,188.53l36.75,17.34L41.85,282.81S77.58,313.83,157.76,286.34Z"/><path class="cls-4" d="M138.55,293.85s13.63-13.06,23.87-14.43,29.82-15.65,31-8.37-7.31,14.75-10.26,15.17c0,0-.48,9.85,16.85,8.47,27-2.14,33.91,7.12,8.93,13.16-13,3.14-19.06,12.09-45.88,8.27"/><path class="cls-9" d="M69.94,211.54,60.61,231s-12.44.75-21.08-3.57-21-18.3-27.94-18.3-5-5.62-5-5.62L20.36,187.9"/><path class="cls-7" d="M142.78,24.92s-2.72,13.4-4,15.1l-9.28,2.33-.78-11.48s-1.86,10.83-3.62,12.91-10.8,6.76-11.48,9.51-11.39-12.24-11.39-12.24S126.65,8.8,142.78,24.92Z"/><path class="cls-25" d="M220.3,295.94s-6.72-2.89-17.17-1.45-17.67-.05-20-8.27c0,0-3.64,8.06,6,9.73S214,299.1,220.3,295.94Z"/><g class="cls-26"><path class="cls-27" d="M157.63,69.58a.42.42,0,1,1,.58.16A.42.42,0,0,1,157.63,69.58Z"/><path class="cls-27" d="M161,71.82a.43.43,0,0,1,.13-.58.42.42,0,0,1,.43.73A.42.42,0,0,1,161,71.82Z"/><path class="cls-27" d="M158.26,73.1a.23.23,0,1,1,.4-.24.23.23,0,1,1-.4.24Z"/><path class="cls-27" d="M160.29,69.43a.24.24,0,0,1,.08-.33.26.26,0,0,1,.33.09.24.24,0,1,1-.41.24Z"/><path class="cls-27" d="M152.31,69.19a.24.24,0,1,1,.41-.24.24.24,0,0,1-.08.33A.26.26,0,0,1,152.31,69.19Z"/><path class="cls-27" d="M157.69,75.58a.24.24,0,0,1,.08-.33.24.24,0,0,1,.33.09.24.24,0,0,1-.08.33A.24.24,0,0,1,157.69,75.58Z"/><path class="cls-27" d="M153.37,73.47a.23.23,0,0,1,.08-.33.23.23,0,0,1,.32.09.23.23,0,1,1-.4.24Z"/><path class="cls-27" d="M161.19,74.56a.23.23,0,1,1,.32.09A.24.24,0,0,1,161.19,74.56Z"/><path class="cls-27" d="M166.57,68.13a.25.25,0,0,1,.08-.34.26.26,0,0,1,.33.09.24.24,0,0,1-.08.33A.24.24,0,0,1,166.57,68.13Z"/><path class="cls-27" d="M154.68,68.84a.24.24,0,0,1,.07-.33.24.24,0,0,1,.33.09.24.24,0,0,1-.07.33A.24.24,0,0,1,154.68,68.84Z"/><path class="cls-27" d="M163.08,69.15a.24.24,0,0,1,.07-.33.24.24,0,0,1,.33.09.24.24,0,0,1-.07.33A.24.24,0,0,1,163.08,69.15Z"/><path class="cls-27" d="M156.84,71.37a.24.24,0,0,1,.07-.33.24.24,0,0,1,.33.09.23.23,0,0,1-.08.33A.23.23,0,0,1,156.84,71.37Z"/><path class="cls-27" d="M167.18,69.94a.24.24,0,1,1,.4-.25.24.24,0,0,1-.07.33A.24.24,0,0,1,167.18,69.94Z"/><path class="cls-27" d="M156.09,73.53a.4.4,0,1,1,.68-.41.4.4,0,1,1-.68.41Z"/><path class="cls-27" d="M164.78,72.6a.4.4,0,0,1,.13-.56.4.4,0,0,1,.54.15.39.39,0,0,1-.13.55A.39.39,0,0,1,164.78,72.6Z"/><path class="cls-27" d="M153.93,71.62a.39.39,0,1,1,.54.15A.4.4,0,0,1,153.93,71.62Z"/></g><g class="cls-26"><path class="cls-27" d="M130.51,69.39a.43.43,0,0,0-.14-.59.44.44,0,0,0-.45.75A.43.43,0,0,0,130.51,69.39Z"/><path class="cls-27" d="M127.1,71.62a.42.42,0,0,0-.13-.57.43.43,0,0,0-.57.16.42.42,0,0,0,.13.57A.43.43,0,0,0,127.1,71.62Z"/><path class="cls-27" d="M129.88,72.91a.24.24,0,0,0-.08-.33.26.26,0,0,0-.33.09.24.24,0,1,0,.41.24Z"/><path class="cls-27" d="M127.84,69.24a.24.24,0,0,0-.07-.33.25.25,0,0,0-.33.09.24.24,0,0,0,.08.33A.22.22,0,0,0,127.84,69.24Z"/><path class="cls-27" d="M135.82,69a.25.25,0,0,0-.07-.34.26.26,0,0,0-.33.09.24.24,0,1,0,.4.25Z"/><path class="cls-27" d="M130.44,75.39a.24.24,0,0,0-.07-.33.24.24,0,0,0-.33.09.24.24,0,0,0,.08.33A.22.22,0,0,0,130.44,75.39Z"/><path class="cls-27" d="M134.77,73.28a.24.24,0,0,0-.08-.33.24.24,0,0,0-.33.09.24.24,0,0,0,.08.33A.24.24,0,0,0,134.77,73.28Z"/><path class="cls-27" d="M127,74.37a.24.24,0,0,0-.07-.33.24.24,0,0,0-.33.08.25.25,0,0,0,.07.34A.25.25,0,0,0,127,74.37Z"/><path class="cls-27" d="M121.56,67.93a.24.24,0,0,0-.07-.33.26.26,0,0,0-.33.09.24.24,0,0,0,.08.33A.22.22,0,0,0,121.56,67.93Z"/><path class="cls-27" d="M133.46,68.65a.24.24,0,1,0-.41-.24.24.24,0,0,0,.08.33A.26.26,0,0,0,133.46,68.65Z"/><path class="cls-27" d="M125.06,69a.24.24,0,1,0-.41-.24.25.25,0,0,0,.08.33A.26.26,0,0,0,125.06,69Z"/><path class="cls-27" d="M131.3,71.18a.24.24,0,0,0-.07-.33.24.24,0,0,0-.33.09.24.24,0,0,0,.07.33A.24.24,0,0,0,131.3,71.18Z"/><path class="cls-27" d="M121,69.74a.24.24,0,0,0-.08-.33.26.26,0,0,0-.33.09.25.25,0,0,0,.08.33A.24.24,0,0,0,121,69.74Z"/><path class="cls-27" d="M132,73.33a.4.4,0,0,0-.12-.55.41.41,0,0,0-.55.15.39.39,0,1,0,.67.4Z"/><path class="cls-27" d="M123.36,72.4a.39.39,0,0,0-.13-.55.41.41,0,1,0,.13.55Z"/><path class="cls-27" d="M134.21,71.43a.4.4,0,0,0-.12-.55.4.4,0,0,0-.55.15.39.39,0,1,0,.67.4Z"/></g><path class="cls-5" d="M109.4,123.69c-8.08,26.44-26.95,14.49-26.95,14.49,7.35-3.92,7.84-14.49,7.84-14.49-10.05,4.47-12.74-1.77-12.74-1.77,3.74-3.4,5.67-6.63,6.36-10l1.15.19"/><path class="cls-14" d="M154.65,84.82a34.71,34.71,0,0,1-23.74-2.25s3.54,7.94,12,9.24S154.65,84.82,154.65,84.82Z"/></g></g></g></svg>