<svg xmlns="http://www.w3.org/2000/svg" viewBox="0 0 27.97 33.51"><defs><style>.cls-1{fill:#4f4e4d;}</style></defs><g id="圖層_2" data-name="圖層 2"><g id="圖層_1-2" data-name="圖層 1"><path class="cls-1" d="M25.66,22.8h-.61l0-.14-1.61-5.31a7.73,7.73,0,0,1-.2-3.67s0-.09,0-.13V13a9.53,9.53,0,0,0-6-9V3.54a3.54,3.54,0,1,0-7.08,0c0,.07,0,.24,0,.45A9.34,9.34,0,0,0,7,6.13,9.43,9.43,0,0,0,4.21,13v.35a.61.61,0,0,0,0,.14,7.6,7.6,0,0,1-.21,4L2.3,22.64l0,.16A2.32,2.32,0,0,0,0,25.11v1.06a2.32,2.32,0,0,0,2.31,2.31H8.65v0a5,5,0,0,0,10,0v0h7A2.32,2.32,0,0,0,28,26.17V25.11A2.32,2.32,0,0,0,25.66,22.8ZM5.39,17.85a9.13,9.13,0,0,0,.27-4.64v-.28a8.08,8.08,0,0,1,6.2-8h3.73a8.11,8.11,0,0,1,3.89,2.19,8,8,0,0,1,2.31,5.79v.53a9.2,9.2,0,0,0,.24,4.3l1.53,5H3.77ZM17.22,28.5a3.56,3.56,0,0,1-7.12,0v0h7.12Zm9.31-2.33a.87.87,0,0,1-.87.86H2.31a.86.86,0,0,1-.86-.86V25.11a.85.85,0,0,1,.86-.86H25.66a.86.86,0,0,1,.87.86Z"/></g></g></svg>