<svg xmlns="http://www.w3.org/2000/svg" viewBox="0 0 36.4 30.23"><defs><style>.cls-1{fill:#4f4e4d;}</style></defs><g id="圖層_2" data-name="圖層 2"><g id="圖層_1-2" data-name="圖層 1"><path class="cls-1" d="M24,13.6a10.47,10.47,0,0,0-6.77-9.77.78.78,0,1,0-.55,1.46,8.91,8.91,0,0,1,5.75,8.31.79.79,0,0,0,.79.78A.78.78,0,0,0,24,13.6Z"/><path class="cls-1" d="M36.09,28.82,25.24,20.61a13.71,13.71,0,1,0-.89,1.29l10.79,8.17a.76.76,0,0,0,.47.16.81.81,0,0,0,.63-.31A.79.79,0,0,0,36.09,28.82ZM13.6,25.62a12.05,12.05,0,1,1,10.07-5.48l-.15.15a.68.68,0,0,0-.12.26A12,12,0,0,1,13.6,25.62Z"/><path class="cls-1" d="M14.42,13.16V8.31a3.13,3.13,0,0,1,2,1.34.78.78,0,1,0,1.35-.79,4.75,4.75,0,0,0-3.35-2.15V5.28a.79.79,0,0,0-1.57,0V6.67c-2.32.26-4.13,1.91-4.15,3.93a3.67,3.67,0,0,0,1.09,2.58,5.18,5.18,0,0,0,3.06,1.42v4.86a3.22,3.22,0,0,1-2.42-1.52A.78.78,0,1,0,9,18.65,4.73,4.73,0,0,0,12.85,21v1.16a.79.79,0,0,0,1.57,0V21a4.24,4.24,0,0,0,3.79-3.88,3.65,3.65,0,0,0-1.09-2.58A5,5,0,0,0,14.42,13.16Zm-4.15-2.55a2.72,2.72,0,0,1,2.58-2.36V13a3.41,3.41,0,0,1-1.94-.93A2.13,2.13,0,0,1,10.27,10.61Zm4.15,8.77V14.76a3.34,3.34,0,0,1,1.58.86,2.09,2.09,0,0,1,.64,1.47A2.61,2.61,0,0,1,14.42,19.38Z"/></g></g></svg>