<svg xmlns="http://www.w3.org/2000/svg" viewBox="0 0 448.11 164.12"><defs><style>.cls-1{fill:#ccc;}.cls-2{fill:#bebf3d;}.cls-3{fill:#265f68;}.cls-4{fill:#8baa45;}.cls-5{fill:#1c4f67;}.cls-6{fill:#20627e;}.cls-7{fill:none;stroke:#e5e5e5;stroke-miterlimit:10;}.cls-8{fill:#e5e5e5;}.cls-9{fill:#e3c62c;}</style></defs><g id="圖層_2" data-name="圖層 2"><g id="圖層_1-2" data-name="圖層 1"><rect class="cls-1" y="130" width="78.53" height="16.9"/><rect class="cls-1" x="98.74" y="130" width="78.53" height="16.9"/><rect class="cls-1" x="197.48" y="130" width="78.53" height="16.9"/><rect class="cls-1" x="294.69" y="130" width="78.53" height="16.9"/><rect class="cls-1" x="393.43" y="130" width="16.9" height="16.9"/><path class="cls-2" d="M358.39,124.3c-5.52-49.56-76.21-71.58-92.54,0Z"/><path class="cls-3" d="M338.56,120.08c-.32-20.73-37.87-30.1-43.87,3.53H336Z"/><path class="cls-4" d="M379.71,120.4c-.56-30.1-55-43.63-63.65,5.13H376Z"/><rect class="cls-5" x="349.88" y="50.8" width="10.45" height="107.33"/><circle class="cls-6" cx="355.41" cy="38.83" r="38.83"/><circle class="cls-7" cx="355.41" cy="38.83" r="34.95"/><path class="cls-8" d="M341.63,18.55h27a4.79,4.79,0,0,1,4.79,4.79v24a0,0,0,0,1,0,0H336.83a0,0,0,0,1,0,0v-24A4.79,4.79,0,0,1,341.63,18.55Z"/><rect class="cls-6" x="341.08" y="22.91" width="28.18" height="16.28" rx="2.01"/><rect class="cls-6" x="341.35" y="41.64" width="3.13" height="3.13" rx="1.09"/><rect class="cls-6" x="365.38" y="41.64" width="3.13" height="3.13" rx="1.09"/><rect class="cls-8" x="333.71" y="48.55" width="43.4" height="4.71" rx="1.93"/><path class="cls-8" d="M341.08,54.41h4.71a0,0,0,0,1,0,0v2.78a1.93,1.93,0,0,1-1.93,1.93H343a1.93,1.93,0,0,1-1.93-1.93V54.41a0,0,0,0,1,0,0Z"/><path class="cls-8" d="M364.56,54.41h4.71a0,0,0,0,1,0,0v2.78a1.93,1.93,0,0,1-1.93,1.93h-.86a1.93,1.93,0,0,1-1.93-1.93V54.41A0,0,0,0,1,364.56,54.41Z"/><path class="cls-9" d="M447.9,164.12s4.3-34.4-25.59-38-28.67,25.47-46.75,19.84-28.89,2.54-29.77,16.65Z"/></g></g></svg>