<svg xmlns="http://www.w3.org/2000/svg" viewBox="0 0 31.5 28.86"><defs><style>.cls-1{fill:#4f4e4d;}</style></defs><g id="圖層_2" data-name="圖層 2"><g id="圖層_1-2" data-name="圖層 1"><path class="cls-1" d="M15.9,6a.73.73,0,0,0-.73.72V8a4,4,0,0,0-3.83,3.63,3.36,3.36,0,0,0,1,2.39,4.68,4.68,0,0,0,2.82,1.31V19.8a2.93,2.93,0,0,1-2.23-1.4.72.72,0,1,0-1.29.66,4.4,4.4,0,0,0,3.52,2.2v1.07a.73.73,0,0,0,.73.72.72.72,0,0,0,.72-.72V21.21a3.92,3.92,0,0,0,3.5-3.58,3.39,3.39,0,0,0-1-2.39A4.63,4.63,0,0,0,16.62,14V9.5a2.88,2.88,0,0,1,1.85,1.24.73.73,0,0,0,1,.26.72.72,0,0,0,.25-1,4.35,4.35,0,0,0-3.1-2V6.7A.72.72,0,0,0,15.9,6Zm-3.11,5.65a2.53,2.53,0,0,1,2.38-2.19v4.41A3.16,3.16,0,0,1,13.38,13,1.92,1.92,0,0,1,12.79,11.63Zm5.29,4.63a1.88,1.88,0,0,1,.59,1.35,2.4,2.4,0,0,1-2.05,2.12V15.46A3,3,0,0,1,18.08,16.26Z"/><path class="cls-1" d="M29.2,17.1a.72.72,0,0,0-.88.53,12.9,12.9,0,0,1-24.67,1.2l2.73.71A.72.72,0,0,0,7.26,19a.43.43,0,0,0,0-.19.72.72,0,0,0-.54-.7l-4-1a.73.73,0,0,0-.44,0h0l-.12.06h0a.78.78,0,0,0-.24.24l0,0L.09,21a.72.72,0,0,0,.29,1,.73.73,0,0,0,1-.3l1.05-2A14.35,14.35,0,0,0,29.73,18,.72.72,0,0,0,29.2,17.1Z"/><path class="cls-1" d="M31.11,6.92a.74.74,0,0,0-1,.3l-1,2A14.35,14.35,0,0,0,1.77,10.88a.72.72,0,0,0,.53.88.47.47,0,0,0,.17,0,.72.72,0,0,0,.7-.55A12.91,12.91,0,0,1,27.85,10l-2.73-.71a.71.71,0,0,0-.88.51.68.68,0,0,0,0,.19.74.74,0,0,0,.54.7l4,1a.69.69,0,0,0,.45,0h0l.1,0h0a.64.64,0,0,0,.25-.24l0,0L31.41,7.9A.72.72,0,0,0,31.11,6.92Z"/></g></g></svg>