<svg xmlns="http://www.w3.org/2000/svg" xmlns:xlink="http://www.w3.org/1999/xlink" viewBox="0 0 292.46 562.18"><defs><style>.cls-1{fill:url(#未命名漸層_2);}.cls-2{fill:#0a3940;}.cls-3{fill:#d49a7a;}.cls-4{fill:#8baa45;}.cls-5{fill:#bebf3d;}.cls-6{fill:#bbdefb;opacity:0.7;}.cls-7{fill:#96a7b2;}.cls-8{fill:#fff;}.cls-10,.cls-9{fill:none;}.cls-10{stroke:#f7f7f7;stroke-miterlimit:10;stroke-width:13px;}</style><linearGradient id="未命名漸層_2" x1="2564.23" y1="355.73" x2="3094.82" y2="355.73" gradientTransform="matrix(-1, 0, 0, 1, 2856.69, -74.64)" gradientUnits="userSpaceOnUse"><stop offset="0" stop-color="#fff"/><stop offset="1" stop-color="#edece9"/></linearGradient></defs><g id="圖層_2" data-name="圖層 2"><g id="圖層_1-2" data-name="圖層 1"><polygon class="cls-1" points="1.22 0 1.22 562.18 292.46 543.42 292.46 41.3 1.22 0"/><path class="cls-2" d="M156,321.32c-2.33-29.4-76.51-40.52-76.51-40.52l-79-20.13v73.17C13,339.53,35.61,349,52.88,351.13c25.27,3.3,29.94-13.19,29.94-13.19C110.3,350.72,158.38,350.58,156,321.32Z"/><path class="cls-3" d="M38.18,282.86C29.47,302.53,15.27,318.48.49,330.91v9.27c17.12-13.53,34.18-31.58,44.28-54.44Z"/><path class="cls-3" d="M9.47,252.77l-4.4,1c0,.14,10.48,45.27-4.58,77.44v3.68L3,336.16C21,302.36,9.47,252.91,9.47,252.77Z"/><path class="cls-4" d="M65.51,252.08c-13.05-17.85-15.93-31.73-52.33-43a97,97,0,0,0-12.69-3v61a1.42,1.42,0,0,1,.05-.22s13.74,21.43,36.4,18.55c0,0-1.78,28.43,34.21,32.55s57.28-26.1,84.89,3.3C150.55,247.14,76.37,266.92,65.51,252.08Z"/><path class="cls-5" d="M25.27,460.89c-.68-7.1-8.57-12.62-24.78-9.68v28.5C11.76,478.79,27.05,478.48,25.27,460.89Z"/><polygon class="cls-6" points="0.48 129.46 0.48 479.86 199.09 479.86 199.09 164.99 0.48 129.46"/><polygon class="cls-7" points="0.48 118.79 0.48 140.12 188.59 173.78 188.59 469.36 0.48 469.36 0.48 490.36 209.59 490.36 209.59 156.21 0.48 118.79"/><path class="cls-8" d="M160.71,217.06s.33-16.29-20-4.32-12.63-13.44-26.93-4.39-26.27,24.57,0,22.3S160.71,236.35,160.71,217.06Z"/><polygon class="cls-9" points="0.48 129.46 0.48 479.86 199.09 479.86 199.09 164.99 0.48 129.46"/><line class="cls-10" x1="76.38" y1="153.01" x2="76.38" y2="470.25"/><path class="cls-10" d="M192.28,285.91c-63.37-10.17-126.37-18.17-189-28.69"/><path class="cls-10" d="M202.9,391.51C135,386.74,68.07,379.74.49,374.68"/><polygon class="cls-7" points="0.48 118.79 0.48 140.12 188.59 173.78 188.59 469.36 0.48 469.36 0.48 490.36 209.59 490.36 209.59 156.21 0.48 118.79"/></g></g></svg>